<svg width="430" height="287" viewBox="0 0 430 287" fill="none" xmlns="http://www.w3.org/2000/svg">
<g clip-path="url(#clip0_116_384)">
<path d="M430 287V0L0 0V287H430Z" fill="#60C7F0"/>
<path d="M87.9822 72.6947C86.6664 72.8585 85.347 73.002 84.0226 73.1186C82.3546 73.2652 80.6841 73.3829 79.0119 73.4713C79.7567 72.7981 80.5015 72.125 81.2462 71.4518C67.9221 72.5212 55.0743 76.7228 42.3734 80.8941C47.9182 78.168 53.6386 75.8 59.4874 73.8095C59.4174 73.8333 60.0121 72.0782 60.1498 71.8934C60.5955 71.2951 61.2555 70.8089 61.9666 70.579C63.8316 69.9759 63.0909 71.3931 64.2568 71.7577C64.7642 71.9165 65.7056 71.0966 66.1522 70.8784C67.0713 70.4292 68.0297 70.0607 69.0121 69.7762C70.9014 69.229 72.8814 68.9928 74.8461 69.0942C75.0331 69.1039 76.9525 66.6705 77.3213 66.3749C78.3849 65.5222 79.5954 64.8845 80.8432 64.3484C83.6663 63.1354 86.7948 62.2773 89.7288 61.255C96.5301 58.8852 103.615 57.3301 110.783 56.6409C111.481 56.5739 112.222 56.5225 112.847 56.8396C113.473 57.1568 113.893 57.9849 113.529 58.5847C116.782 56.2478 121.552 56.3004 124.753 58.7084C127.155 56.1747 131.773 56.3041 134.03 58.9685C143.065 56.9308 152.273 55.6566 161.522 55.1696C165.912 54.9384 170.296 54.5507 174.682 54.22C179.1 53.8871 183.968 54.0836 188.303 53.1933C185.181 53.8345 182.054 54.4478 178.935 55.0978C176.073 55.6942 173.387 56.6937 170.574 57.5132C164.734 59.2143 158.826 60.6791 152.868 61.9026C147.233 63.0601 141.555 64.0013 135.879 64.9424C127.163 66.3874 118.46 67.9165 109.717 69.191C102.448 70.2504 95.272 71.7869 87.9825 72.6949L87.9822 72.6947Z" fill="white"/>
<path d="M232.389 0C232.146 0.194729 231.908 0.395056 231.676 0.603131C232.184 1.33369 232.691 2.06439 233.199 2.79495C219.884 7.22695 206.542 11.2722 193.071 15.1965C192.406 15.3904 191.603 15.7544 191.6 16.4483C191.599 16.5424 191.626 16.6192 191.671 16.6814C181.56 19.7773 171.815 24.0681 162.703 29.4373C186.147 27.2339 199.86 24.0648 212.879 20.6532C215 20.0977 220.607 22.64 223.069 22.9013C242.001 24.9113 295.991 12.1725 313.857 6.46224C315.653 5.88838 323.532 3.18527 332.96 0.0001435H232.389V0Z" fill="white"/>
<path d="M0 114.165V120.494C4.2517 119.13 7.4529 118.184 7.5604 118.399C7.28821 117.833 7.01602 117.268 6.74383 116.702C11.1899 114.361 15.9114 112.544 20.7795 111.302C13.8192 111.986 6.88588 112.941 0 114.165Z" fill="white"/>
<path d="M0 151.468V152.069C66.1071 135.012 125.961 119.568 180.395 105.523C173.952 106.919 167.382 108.145 160.757 109.429C110.608 119.156 57.5809 133.845 0 151.468Z" fill="#B1E1F2"/>
<path d="M193.138 102.42C194.908 101.928 196.661 101.411 198.401 100.877C192.466 102.408 186.464 103.957 180.395 105.523C184.707 104.588 188.962 103.578 193.138 102.42Z" fill="#B1E1F2"/>
<path d="M430 49.2226V39.323C424.179 41.8025 418.275 44.295 412.285 46.8009C405.801 49.5135 399.163 52.2601 392.111 53.9624C385.438 55.5732 378.452 56.2231 371.577 55.8502C375.535 53.0991 379.459 50.3706 383.352 47.6644C374.793 50.3208 366.074 53.0268 357.192 55.7836C355.553 56.2923 353.909 56.8027 352.258 57.3149C333.923 63.0054 314.874 68.9174 295.069 75.0645C283.905 78.5294 272.46 82.08 260.483 84.6948C249.852 87.0159 238.817 88.5962 227.877 91.5131C218.051 94.1333 208.445 97.7938 198.401 100.877C213.996 96.8529 229.136 92.9466 243.837 89.1532C246.32 88.5128 249.279 87.9233 251.007 89.049C252.275 89.8749 252.404 91.3785 253.598 92.2535C255.356 93.5419 258.538 92.9848 261.178 92.3628C292.04 85.0909 321.132 78.236 348.602 71.7632C349.911 72.2135 351.217 72.6626 352.519 73.1104C353.592 73.4794 354.761 73.8535 355.977 73.5931C356.945 73.3859 357.835 72.5738 357.861 71.8481C383.905 66.8431 407.788 58.5979 430 49.2225L430 49.2226Z" fill="#B1E1F2"/>
<path d="M238.846 64.4375C237.316 64.6292 235.787 64.5868 234.206 64.7687C232.1 65.0109 229.971 65.2308 227.906 65.7203C224.559 66.5132 220.362 68.0299 216.929 68.0299C218.851 67.3943 220.774 66.7589 222.696 66.1234C222.346 65.9489 221.995 65.7744 221.645 65.5997C225.583 64.2772 229.606 63.2106 233.681 62.4089C232.993 61.6307 233.849 60.3014 234.879 60.1733C235.909 60.0451 236.869 60.6592 237.726 61.2462C236.39 60.3308 241.105 57.3417 241.547 57.1644C243.209 56.4974 245.024 56.3045 246.72 55.7005C250.47 54.3654 254.767 54.1127 258.249 56.3167C259.792 57.2934 260.311 58.1237 262.115 57.3945C262.865 57.0912 263.561 56.8957 264.382 56.9638C264.695 56.9897 267.283 57.5837 267.154 58.0653C267.347 57.3457 267.947 56.7508 268.668 56.5648C269.388 56.3787 270.201 56.6087 270.717 57.145C273.109 55.809 276.069 56.4042 278.734 57.0351C269.926 59.1892 261.117 61.3432 252.308 63.4975C251.457 63.7057 250.592 63.9155 249.716 63.8838C248.928 63.8553 248.163 63.6328 247.386 63.5013C245.046 63.1056 242.674 63.5465 240.409 64.1423C239.886 64.2798 239.366 64.3721 238.846 64.4372L238.846 64.4375Z" fill="#B1E1F2"/>
<path d="M309.171 159.655C290.759 140.76 430 135.906 430 135.906V128.473C430 128.473 129.982 118.642 0 164.622V287H430V179.283C374.481 176.528 320.16 170.933 309.171 159.655Z" fill="#3B3B40"/>
<path d="M291.621 240.08C289.549 240.781 287.478 241.487 285.405 242.186C303.017 245.767 320.649 249.242 338.295 252.637C341.41 251.509 344.529 250.391 347.645 249.266C350.728 248.153 353.809 247.031 356.883 245.892C339.001 242.785 321.133 239.606 303.285 236.326C302.584 236.534 301.884 236.744 301.184 236.959C297.98 237.948 294.798 239.006 291.621 240.08Z" fill="#D3D9F0"/>
<path d="M358.607 132.545C339.716 133.228 320.828 134.029 301.945 134.977C301.187 135.716 300.417 136.442 299.635 137.155C318.833 135.883 338.043 134.764 357.261 133.769C357.71 133.361 358.158 132.953 358.607 132.545Z" fill="#D3D9F0"/>
<path d="M430 130.577L404.515 131.15C404.373 131.305 404.232 131.461 404.089 131.615L430 130.636V130.577Z" fill="#D3D9F0"/>
<path d="M181.838 219.08L181.773 219.355C193.881 222.305 206.015 225.125 218.166 227.857C226.072 229.635 233.986 231.374 241.904 233.083C245.098 231.875 248.271 230.615 251.437 229.337C253.024 228.696 254.609 228.05 256.194 227.404C244.064 225.027 231.948 222.588 219.852 220.063C211.439 218.306 203.036 216.507 194.648 214.653C192.066 215.525 189.493 216.419 186.919 217.315C185.226 217.904 183.533 218.494 181.838 219.08Z" fill="#D3D9F0"/>
<path d="M430 258.116L408.803 254.637C407.723 255.025 406.643 255.415 405.564 255.806C402.223 257.018 398.888 258.245 395.551 259.468C393.174 260.338 390.796 261.206 388.416 262.064L430 269.543V258.116Z" fill="#D3D9F0"/>
<path d="M251.328 140.72C251.762 140.391 252.198 140.063 252.63 139.731C253.5 139.053 254.364 138.366 255.209 137.659C245.645 138.283 236.084 138.958 226.525 139.698C216.473 140.476 206.425 141.325 196.383 142.269C194.69 143.636 192.971 144.97 191.246 146.295C191.14 146.376 191.034 146.457 190.928 146.538C202.866 145.185 214.824 143.974 226.794 142.863C234.967 142.104 243.145 141.394 251.327 140.721L251.328 140.72Z" fill="#D3D9F0"/>
<path d="M104.169 155.786C102.497 156.204 100.828 156.644 99.1619 157.111C98.6422 157.974 98.0929 158.819 97.5154 159.643C96.4347 161.186 95.2875 162.686 94.0952 164.147L94.4687 164.021L96.6296 163.287L97.1699 163.103L97.7171 162.934L98.8122 162.595C99.5433 162.372 100.27 162.137 101.005 161.923L103.218 161.295L104.324 160.981C104.693 160.875 105.067 160.784 105.438 160.685C111.378 159.101 117.407 157.752 123.468 156.528C129.53 155.307 135.627 154.208 141.745 153.207C143.138 152.979 144.532 152.756 145.927 152.535C147.636 151.521 149.353 150.518 151.064 149.507C152.606 148.598 154.144 147.681 155.67 146.746C150.794 147.379 145.92 148.049 141.051 148.771C134.877 149.684 128.713 150.698 122.562 151.839C116.412 152.984 110.275 154.257 104.169 155.786Z" fill="#D3D9F0"/>
<path d="M0 200.121C14.5538 204.056 47.1545 206.797 85.0389 206.797C136.482 206.797 178.185 201.743 178.185 195.508C178.185 189.274 136.482 184.22 85.0389 184.22C47.1545 184.219 14.5538 186.961 0 190.895V200.121Z" fill="#28282B"/>
<path d="M83.5477 187.826C83.8759 187.972 84.203 188.122 84.5321 188.263L85.5217 188.677L87.5013 189.505C88.1625 189.775 88.827 190.03 89.4897 190.293C94.7965 192.379 100.156 194.239 105.539 195.994C110.922 197.746 116.33 199.391 121.753 200.968C123.646 201.515 125.541 202.052 127.438 202.585C128.466 202.32 129.494 202.055 130.523 201.793C132.685 201.241 134.848 200.695 137.014 200.161C137.879 199.948 138.744 199.738 139.609 199.529L139.635 199.428C134.203 198.057 128.782 196.646 123.383 195.174C117.987 193.693 112.612 192.148 107.279 190.502C101.947 188.854 96.6525 187.106 91.4643 185.157C90.817 184.911 90.1653 184.673 89.5216 184.422L87.599 183.652L86.6376 183.267C86.3191 183.136 86.0055 182.997 85.6891 182.863L83.7945 182.05C83.3407 181.845 82.8888 181.636 82.438 181.427C81.7012 181.564 80.964 181.7 80.2275 181.84C78.1875 182.228 76.1496 182.627 74.1144 183.04C76.5639 184.513 79.0648 185.761 81.5806 186.946L83.5477 187.826V187.826Z" fill="#7781A8"/>
<path d="M159.17 124.795C156.236 126.171 153.908 126.335 151.107 126.461C150.12 120.048 150.369 113.447 151.838 107.127C154.459 107.849 157.703 109.162 159.6 111.112L159.17 124.795V124.795Z" fill="#D18021"/>
<path d="M150.529 119.713C152.337 115.945 153.324 111.781 153.382 107.601C152.854 107.422 152.335 107.264 151.838 107.127C150.881 111.246 150.445 115.485 150.529 119.713Z" fill="#23242E"/>
<path d="M172.84 183.675C170.963 192.498 164.901 197.981 159.301 195.923C153.701 193.864 150.683 185.043 152.56 176.22C154.437 167.397 160.499 161.913 166.099 163.972C171.699 166.03 174.717 174.852 172.84 183.675Z" fill="#23242E"/>
<path d="M133.764 180.147C135.113 190.765 130.469 199.284 123.391 199.174C116.312 199.064 109.481 190.367 108.132 179.748C106.784 169.129 111.428 160.61 118.506 160.72C125.584 160.83 132.416 169.528 133.764 180.147Z" fill="#23242E"/>
<path d="M123.883 182.175C124.663 187.715 122.663 192.073 119.415 191.908C116.167 191.742 112.902 187.117 112.122 181.577C111.342 176.037 113.342 171.68 116.59 171.845C119.838 172.011 123.103 176.635 123.883 182.175Z" fill="#A8B2E0"/>
<path d="M123.883 182.176C123.554 179.838 122.781 177.665 121.755 175.919C121.189 180.742 121.521 185.782 122.518 190.283C123.788 188.548 124.363 185.587 123.883 182.176Z" fill="#23242E"/>
<path d="M78.183 188.063C79.2444 196.419 75.5894 203.124 70.0192 203.037C64.449 202.95 59.073 196.106 58.0116 187.749C56.9502 179.392 60.6052 172.688 66.1754 172.775C71.7457 172.862 77.1217 179.706 78.183 188.063Z" fill="#23242E"/>
<path d="M70.4066 189.659C71.0205 194.019 69.4463 197.448 66.8904 197.318C64.3345 197.188 61.7649 193.549 61.151 189.189C60.5371 184.829 62.1114 181.4 64.6673 181.53C67.2232 181.66 69.7927 185.3 70.4066 189.659Z" fill="#A8B2E0"/>
<path d="M57.5824 193.051C55.504 193.357 53.4281 193.663 51.3555 193.969C40.0536 174.42 34.4904 153.262 33.292 130.706C45.0739 111.216 63.8712 96.0797 85.4123 88.7371C106.953 81.3946 133.244 81.3805 152.646 94.0236C152.807 110.533 150.949 122.009 147.528 138.02C153.046 138.239 158.449 140.64 162.311 144.591C166.174 148.542 168.499 153.932 168.598 159.46C171.619 159.763 174.026 162.333 175.065 165.189C176.104 168.045 176.347 170.596 176.272 173.635C174.486 173.823 173.593 174.294 171.807 174.483L170.125 183.386C156.453 188.277 140.832 189.432 126.864 185.421C127.072 181.233 127.254 176.888 125.673 173.005C124.091 169.123 120.21 165.841 116.056 166.371C113.529 166.694 111.338 168.347 109.726 170.323C106.043 174.838 105.564 180.238 106.587 185.748C106.587 185.748 80.8533 189.643 75.607 190.41C75.2242 186.829 73.8 182.758 71.95 179.67C70.1002 176.582 66.3956 174.295 62.9293 175.256C59.828 176.116 57.8337 179.315 57.395 182.507C56.9562 185.699 56.7825 189.93 57.5823 193.051H57.5824Z" fill="#E3A027"/>
<path d="M106.85 175.718C106.898 172.901 107.512 170.158 108.832 167.656C109.127 167.097 109.477 166.548 109.871 166.02C104.937 144.038 98.505 114.983 96.2954 103.226C96.2954 103.226 100.643 84.6329 120.948 84.0274L120.762 83.9443C108.776 83.1311 96.4685 84.9682 85.4119 88.737C63.8709 96.0794 45.0735 111.216 33.2916 130.706C34.49 153.262 40.0532 174.42 51.3551 193.969C53.4275 193.663 55.5034 193.357 57.582 193.051C56.7822 189.93 56.956 185.698 57.3947 182.507C57.8334 179.315 59.8278 176.116 62.9291 175.256C66.3953 174.295 70.0999 176.582 71.9498 179.67C73.7996 182.758 75.2238 186.829 75.6068 190.409C80.8531 189.643 106.586 185.748 106.586 185.748C105.946 182.298 105.895 178.891 106.85 175.718L106.85 175.718Z" fill="#D18021"/>
<path d="M106.348 131.297L107.401 137.576L100.147 134.561L106.348 131.297Z" fill="#23242E"/>
<path d="M128.483 137.783C127.563 122.915 126.643 108.047 125.723 93.1788C116.921 93.8501 107.129 98.8647 103.648 101.844C103.648 101.844 105.084 118.835 113.568 144.492C118.23 141.019 122.824 139.485 128.484 137.782L128.483 137.783Z" fill="#23242E"/>
<path d="M145.152 137.576C142.982 136.686 137.388 136.2 134.158 136.686L133.244 93.3263C139.133 92.6382 146.158 96.1703 149.791 99.1494C149.944 111.499 147.556 125.651 145.152 137.576Z" fill="#23242E"/>
<path d="M143.792 172.602C147.805 172.602 151.058 167.844 151.058 161.974C151.058 156.104 147.805 151.346 143.792 151.346C139.779 151.346 136.525 156.104 136.525 161.974C136.525 167.844 139.779 172.602 143.792 172.602Z" fill="white"/>
<path d="M144.754 156.043C147.22 156.043 149.219 159.398 149.219 163.538C149.219 164.849 149.018 166.082 148.665 167.154C149.433 165.808 149.905 163.984 149.905 161.974C149.905 157.834 147.906 154.479 145.44 154.479C143.756 154.479 142.289 156.045 141.529 158.357C142.342 156.932 143.486 156.043 144.754 156.043H144.754Z" fill="#23242E"/>
<path d="M164.909 168.457C167.049 168.457 168.784 165.822 168.784 162.571C168.784 159.32 167.049 156.685 164.909 156.685C162.77 156.685 161.035 159.32 161.035 162.571C161.035 165.822 162.77 168.457 164.909 168.457Z" fill="#D3D9F0"/>
<path d="M163.883 171.268C167.167 171.268 169.829 167.374 169.829 162.571C169.829 157.768 167.167 153.874 163.883 153.874C160.599 153.874 157.937 157.768 157.937 162.571C157.937 167.374 160.599 171.268 163.883 171.268Z" fill="white"/>
<path d="M163.883 157.147C166.023 157.147 167.757 160.29 167.757 164.167C167.757 165.198 167.634 166.176 167.413 167.058C168.251 165.979 168.784 164.37 168.784 162.571C168.784 159.32 167.049 156.685 164.909 156.685C164.331 156.685 163.783 156.883 163.29 157.229C163.484 157.175 163.682 157.147 163.883 157.147Z" fill="#23242E"/>
<path d="M79.7908 112.951C80.6568 117.487 81.544 121.982 82.791 126.433C84.073 131.008 85.5792 135.513 87.1627 139.992C91.3783 139.239 95.6515 138.707 99.9727 138.406C99.0686 127.035 98.1774 114.597 97.2733 103.226C91.0308 104.482 84.9046 106.29 78.9711 108.598C79.2123 110.069 79.5189 111.528 79.7908 112.952V112.951Z" fill="#23242E"/>
<path d="M89.7658 109.374C93.3944 109.097 98.1554 108.845 101.735 109.499L93.9448 116.794L89.7658 109.374Z" fill="#23242E"/>
<path d="M78.977 126.357C77.7522 121.802 76.9117 117.189 76.0445 112.557C75.8847 111.703 75.7286 110.842 75.5883 109.977C71.1279 111.88 66.7872 114.065 62.6044 116.521C64.7543 125.933 68.4914 134.829 72.6832 143.533C76.2466 142.417 79.8661 141.474 83.5322 140.7C81.8584 135.97 80.2812 131.207 78.977 126.357V126.357Z" fill="#23242E"/>
<path d="M59.3884 118.48C55.4303 120.983 51.6257 123.729 48.0081 126.702C49.0695 130.653 50.2884 134.554 51.684 138.411C53.1061 142.341 54.675 146.209 56.3134 150.047C60.5175 147.992 64.8279 146.199 69.228 144.67C65.1667 136.221 61.556 127.581 59.3884 118.48Z" fill="#23242E"/>
<path d="M45.4588 131.144C45.2793 130.537 45.107 129.928 44.9383 129.318C42.3533 131.604 39.8719 134.007 37.5117 136.526C39.1558 143.362 40.7358 150.865 43.5451 157.31C46.6384 155.285 49.8068 153.42 53.0411 151.711C50.1789 144.983 47.5317 138.16 45.4589 131.144H45.4588Z" fill="#23242E"/>
<path d="M174.187 185.502C175.908 181.264 176.234 176.352 175.341 171.865C158.43 176.493 139.984 176.211 123.118 171.418C120.113 177.656 121.01 185.585 125.332 190.992C141.53 192.659 158.645 190.361 174.187 185.502Z" fill="#D3D9F0"/>
<path d="M135.349 189.27C129.508 184.973 128.411 177.108 128.282 172.731C126.547 172.339 124.824 171.903 123.118 171.418C120.113 177.656 121.01 185.585 125.332 190.992C141.53 192.659 158.645 190.361 174.187 185.502C174.41 184.953 174.609 184.393 174.786 183.823C157.937 191.492 135.349 189.27 135.349 189.27H135.349Z" fill="#A8B2E0"/>
<path d="M50.567 182.837C47.9196 183.055 45.4685 184.877 44.4933 187.351C43.518 189.825 44.0654 192.832 45.8498 194.802C47.6341 196.772 50.5696 197.611 53.1239 196.88L50.567 182.837Z" fill="#A8B2E0"/>
<path d="M106.348 131.297C105.791 123.934 104.297 116.424 101.735 109.499C97.3892 110.14 93.177 111.678 89.439 113.988C91.5394 122.255 95.1295 130.304 100.423 136.988C102.471 135.266 104.3 133.02 106.348 131.297H106.348Z" fill="#D18021"/>
<path d="M42.3837 210.282C42.3837 210.282 59.7061 208.779 72.8069 204.258C85.9077 199.738 79.1366 196.879 79.1366 196.879C79.1366 196.879 81.0842 198.556 77.2664 200.596C72.8077 202.979 61.9835 206.737 42.3837 210.282Z" fill="white"/>
<path d="M104.306 200.082C104.306 200.082 115.828 200.373 124.011 198.184C132.193 195.994 128.84 193.639 128.84 193.639C128.84 193.639 136.601 196.802 126.543 199.066C116.593 201.305 104.306 200.082 104.306 200.082Z" fill="white"/>
<path d="M143.792 196.642C143.792 196.642 158.612 197.729 167.686 195.508L143.792 196.642Z" fill="#23242E"/>
<path d="M31.0559 180.449C31.0559 180.449 43.803 171.742 57.6395 165.064C72.2554 158.011 82.9011 154.763 82.9011 154.763C82.9011 154.763 55.9297 157.61 31.0559 180.449Z" fill="white"/>
<path d="M96.2954 89.9191C72.5829 92.7852 50.0034 104.268 33.7058 121.749C47.9479 102.924 72.7379 91.1154 96.2954 89.9191Z" fill="white"/>
<path d="M122.547 79.4734C101.211 80.5996 80.1066 85.9606 60.8156 95.1545C79.7871 84.1312 100.617 78.9785 122.547 79.4734Z" fill="white"/>
<path d="M141.1 147.675C134.095 152.176 124.698 154.718 115.287 154.659C105.877 154.599 96.5439 151.938 89.6517 147.349C105.076 154.136 125.447 154.189 141.1 147.675Z" fill="white"/>
<path d="M144.697 141.461C140.497 145.579 133.713 146.785 128.354 144.365C133.704 145.625 139.943 144.221 144.697 141.461Z" fill="white"/>
<path d="M152.195 129.225C154.734 131.805 155.702 135.824 154.619 139.279C153.535 142.735 150.446 145.478 146.89 146.142C149.616 144.571 151.81 142.015 152.7 138.995C153.59 135.975 153.632 132.026 152.195 129.225Z" fill="white"/>
<path d="M323.828 198.557C349.082 198.557 369.554 196.076 369.554 193.015C369.554 189.954 349.082 187.473 323.828 187.473C298.574 187.473 278.102 189.954 278.102 193.015C278.102 196.076 298.574 198.557 323.828 198.557Z" fill="#28282B"/>
<path d="M353.524 84.6471C353.524 84.6471 361.718 92.5229 362.927 106.028L342.527 106.744L341.83 88.5805L353.524 84.6471Z" fill="#23242E"/>
<path d="M378.479 88.8216L384.482 87.789C384.482 87.789 389.138 112.194 400.295 122.856L373.401 125.167L378.479 88.8216Z" fill="#CC5733"/>
<path d="M384.238 89.6183L383.65 89.7529L382.47 93.9737L392.981 123.485L400.295 122.856C387.387 109.994 385.519 95.3255 384.238 89.6183Z" fill="#B03916"/>
<path d="M383.65 89.7528C383.65 89.7528 388.356 118.561 402.282 127.036L384.456 130.236C384.456 130.236 381.839 142.575 378.291 147.42L304.443 143.451C304.443 143.451 315.666 124.845 309.012 103.495L383.65 89.7525V89.7528Z" fill="#D3D9F0"/>
<path d="M373.401 142.199C373.401 142.199 384.691 125.416 381.253 107.474C379.777 99.7702 378.352 94.4755 377.205 90.9394L309.012 103.495C314.176 120.062 308.575 134.975 305.806 140.826L373.401 142.199Z" fill="#A8B2E0"/>
<path d="M301.818 140.933C301.818 140.933 312.351 123.067 304.7 103.141L378.479 88.8216C378.479 88.8216 389.365 115.352 378.197 136.452L301.818 140.933Z" fill="#CC5733"/>
<path d="M377.29 89.0524L304.7 103.141C307.162 109.553 307.74 115.75 307.393 121.208L381.884 110.668C381.497 97.9177 377.29 89.0524 377.29 89.0524Z" fill="#B03916"/>
<path d="M402.282 127.036C388.356 118.561 383.65 89.7529 383.65 89.7529L381.253 90.1942C388.65 111.183 384.457 130.236 384.457 130.236L402.283 127.036L402.282 127.036Z" fill="#A8B2E0"/>
<path d="M319.632 92.6944C319.392 109.125 335.167 109.772 335.167 109.772C333.512 117.098 323.891 129.189 323.891 129.189L335.948 136.143C335.948 136.143 335.988 129.536 329.974 128.559C329.974 128.559 340.781 119.557 345.236 109.943C351.356 96.739 346.403 87.1853 346.403 87.1853L319.633 92.6944H319.632Z" fill="#23242E"/>
<path d="M352.359 63.441L383.136 51.1687C383.136 51.1687 385.864 54.2557 386.951 52.8778C387.679 51.9541 385.214 49.8729 385.214 49.8729C388.943 47.9424 393.06 46.3861 392.79 45.6452C392.135 43.8437 351.05 50.0316 351.05 50.0316L352.359 63.441Z" fill="#D3765A"/>
<path d="M375.371 49.1019L372.291 55.4931L378.55 52.997C377.549 50.3437 375.371 49.1019 375.371 49.1019Z" fill="#23242E"/>
<path d="M332.237 65.6116C332.806 59.8297 328.669 55.4491 320.94 60.1126C313.21 64.7762 301.818 82.6167 306.456 90.6111C308.616 94.3349 317.7 94.0162 321.684 91.7561C329.693 87.2121 331.274 75.3961 332.237 65.6116Z" fill="#CC5733"/>
<path d="M330.378 59.4707C328.629 67.1194 321.841 82.3986 313.77 82.0565C310.699 81.9263 308.229 81.3806 306.279 80.6847C305.13 84.4978 304.974 88.0571 306.456 90.6109C308.616 94.3348 317.7 94.016 321.684 91.7559C329.693 87.212 331.274 75.3959 332.237 65.6116C332.485 63.084 331.835 60.8242 330.378 59.4707Z" fill="#B03916"/>
<path d="M341.83 55.5712C341.83 55.5712 319.63 69.3548 318.824 99.6184C318.824 99.6184 339.313 98.3764 357.25 87.7169C357.25 87.7169 351.69 70.1771 355.362 60.7735L341.83 55.5714L341.83 55.5712Z" fill="#D3D9F0"/>
<path d="M347.193 57.633L341.83 55.5712C341.83 55.5712 319.63 69.3548 318.824 99.6184C318.824 99.6184 326.251 99.1671 336.075 96.4829C331.322 72.0825 343.392 60.5788 347.193 57.633Z" fill="#A8B2E0"/>
<path d="M339.228 85.1215C343.099 87.7811 346.78 89.9109 349.891 91.543C352.353 90.4258 354.825 89.1581 357.25 87.717C357.25 87.717 356.294 84.6976 355.436 80.4942L332.092 67.0436C332.092 67.0436 326.701 76.5148 339.228 85.1215Z" fill="#A8B2E0"/>
<path d="M330 62.6142C330 62.6142 343.092 63.1083 342.527 72.0236C341.923 81.5404 329.212 87.1537 317.885 88.8217L317.734 83.5537C317.734 83.5537 338.392 81.4044 340.027 71.8008C341.335 64.1191 329.902 63.8184 329.902 63.8184L330 62.6142Z" fill="#B03916"/>
<path d="M351.764 62.8093C354.347 67.3457 353.678 71.0232 350.27 71.0232C346.862 71.0232 342.006 67.3457 339.423 62.8093C336.84 58.2728 337.509 54.5953 340.917 54.5953C344.325 54.5953 349.182 58.2728 351.764 62.8093Z" fill="#BD5639"/>
<path d="M340.917 54.5953C339.744 54.5953 338.895 55.0316 338.392 55.7887C341.633 61.1902 346.362 66.3913 351.929 70.6333C353.814 69.5744 353.85 66.4725 351.764 62.8094C349.182 58.273 344.325 54.5955 340.917 54.5955V54.5953Z" fill="#23242E"/>
<path d="M371.827 47.0126C371.827 56.4704 360.317 61.5678 346.119 58.3981C331.921 55.2283 320.411 44.9917 320.411 35.5339C320.411 26.0761 331.921 20.9787 346.119 24.1485C360.317 27.3183 371.827 37.5548 371.827 47.0126Z" fill="#CC5733"/>
<path d="M376.269 49.6755C379.391 61.7572 371.898 70.6463 359.531 69.5302C347.165 68.4139 334.609 57.715 331.486 45.6333C328.364 33.5516 335.857 24.6625 348.224 25.7786C360.59 26.8949 373.146 37.5938 376.269 49.6755Z" fill="#D3765A"/>
<path d="M353.414 26.792C351.698 26.2808 349.959 25.9353 348.224 25.7786C335.857 24.6624 328.364 33.5516 331.486 45.6332C334.609 57.7149 347.165 68.4138 359.531 69.5301C365.649 70.0823 370.573 68.1848 373.61 64.6644C351.729 66.1618 348.744 36.2714 353.414 26.792Z" fill="#BD5639"/>
<path d="M348.639 30.5387C343.317 25.3197 335.295 23.3548 330.721 26.1497C329.475 26.9108 328.617 27.9481 328.13 29.1578C325.991 31.3035 325.672 35.8304 327.658 41.0681C330.43 48.3782 336.641 54.304 341.531 54.304C342.174 54.304 342.762 54.2005 343.292 54.0059C344.941 55.3099 346.463 55.9362 347.004 55.4414C347.537 54.9538 346.959 53.5219 345.687 51.9375C346.515 50.5142 346.849 48.5293 346.623 46.2054C347.865 46.0296 349.009 45.6501 349.993 45.049C354.567 42.254 353.961 35.7573 348.639 30.5384V30.5387Z" fill="#E0C5A8"/>
<path d="M328.267 51.9426C317.392 40.3752 316.37 26.4075 325.984 20.7448C335.597 15.0822 352.205 19.8689 363.079 31.4363L328.267 51.9424L328.267 51.9426Z" fill="#4F30BD"/>
<path d="M358.266 31.8629C359.041 35.6311 349.618 44.2483 337.219 51.1098C324.821 57.9714 314.141 60.4791 313.366 56.7108C312.591 52.9426 322.014 44.3255 334.413 37.4639C346.812 30.6023 357.491 28.0946 358.266 31.8629Z" fill="#4F30BD"/>
<path d="M328.482 24.8778C328.718 22.3868 329.459 20.4562 330.449 18.9587C328.844 19.3519 327.344 19.9435 325.983 20.7448C318.269 25.2888 317.405 35.1801 322.983 44.888C316.744 49.673 312.857 54.2369 313.366 56.7108C313.809 58.8665 317.495 58.9673 322.889 57.3751C331.579 53.2387 338.565 44.2867 338.565 44.2867C338.565 44.2867 327.496 35.2695 328.482 24.8778Z" fill="#3C248F"/>
<path d="M338.541 31.0747C333.382 35.1537 324.614 35.5994 324.614 35.5994L326.654 41.4679C335.816 41.068 340.493 38.0879 340.493 38.0879L338.541 31.0745L338.541 31.0747Z" fill="#D3D9F0"/>
<path d="M359.973 23.3615C359.223 22.5357 358.22 21.9898 357.146 21.7375C357.359 21.9429 357.561 22.1659 357.75 22.4074C358.778 23.7207 359.21 25.2956 359.066 26.74C358.071 25.7568 356.609 24.8689 355.045 25.8151C352.209 27.5302 354.979 32.0579 354.979 32.0579L357.461 30.3696C358.087 30.2284 358.687 29.9826 359.225 29.6209C361.43 28.1384 361.764 25.336 359.973 23.3615Z" fill="#E0C5A8"/>
<path d="M354.395 31.1262L361.156 27.2338L363.251 31.5197C363.251 31.5197 358.218 34.2654 356.634 35.0627C353.877 36.4505 351.344 33.0393 354.395 31.1262Z" fill="#23242E"/>
<path d="M343.871 54.6435C345.661 57.0784 343.516 59.638 339.08 60.3608C334.643 61.0835 329.596 59.6956 327.806 57.2607C326.015 54.8258 328.16 52.2662 332.597 51.5433C337.033 50.8207 342.081 52.2086 343.871 54.6435Z" fill="#BD5639"/>
<path d="M332.022 57.7533C332.022 57.7533 328.586 56.709 329.691 54.8049C330.795 52.9007 339.63 54.1906 340.796 56.2791C341.962 58.3676 336.594 58.994 336.371 55.1472C336.371 55.1472 331.541 53.8761 330.688 55.5306C330.205 56.4685 332.022 57.7533 332.022 57.7533Z" fill="#7D2F1F"/>
<path d="M364.958 53.8337C364.887 54.1322 364.846 54.4558 364.846 54.7955C364.846 56.2623 365.58 57.4515 366.485 57.4515C367.256 57.4515 367.901 56.5869 368.075 55.4239C368.016 55.4266 367.958 55.4313 367.898 55.4313C366.582 55.4313 365.452 54.7737 364.958 53.8337Z" fill="#23242E"/>
<path d="M365.621 46.1192C366.421 45.5201 365.892 43.4583 364.44 41.5141C362.987 39.5699 361.161 38.4795 360.361 39.0786C359.561 39.6776 360.09 41.7394 361.543 43.6836C362.995 45.6278 364.821 46.7182 365.621 46.1192Z" fill="#4F30BD"/>
<path d="M372.468 41.8089C373.213 41.2513 372.763 39.3891 371.464 37.6497C370.164 35.9102 368.507 34.9521 367.762 35.5097C367.017 36.0674 367.467 37.9295 368.767 39.669C370.067 41.4085 371.724 42.3666 372.468 41.8089Z" fill="#4F30BD"/>
<path d="M367.23 39.3745L373.112 45.574C373.112 45.574 378.388 44.6263 377.347 46.8341C376.306 49.0418 369.269 48.9533 367.23 39.3744V39.3745Z" fill="#7D2F1F"/>
<path d="M357.207 40.291L361.156 34.72C361.156 34.72 355.681 34.6302 357.207 40.291Z" fill="#E0C5A8"/>
<path d="M363.849 33.8215L369.323 33.1027C369.323 33.1027 366.565 28.7095 363.849 33.8215Z" fill="#E0C5A8"/>
<path d="M338.565 78.2731L363.987 91.6493L378.291 88.8732C378.291 88.8732 375.101 86.5634 370.812 87.8624L345.357 70.3057L338.565 78.2731Z" fill="#D3765A"/>
<path d="M338.96 79.6599C338.96 79.6599 344.171 74.6449 345.752 69.9101C345.752 69.9101 337.363 61.9668 332.592 66.4867C327.624 71.1938 338.96 79.6599 338.96 79.6599Z" fill="#D3D9F0"/>
<path d="M284.452 106.358C284.452 106.358 273.825 122.807 331.379 104.913C331.379 104.913 300.463 112.705 289.551 110.311C284.566 109.218 284.452 106.358 284.452 106.358Z" fill="white"/>
<path d="M288.029 116.643C288.029 116.643 297.655 121.863 313.182 114.666C313.182 114.666 298.881 118.434 288.029 116.643Z" fill="white"/>
<path d="M293.427 126.007C293.427 126.007 302.618 126.757 309.678 124.203C309.678 124.203 302.145 129.425 293.427 126.007Z" fill="white"/>
<path d="M203.091 268.575C252.032 268.575 291.707 265.672 291.707 262.09C291.707 258.509 252.032 255.606 203.091 255.606C154.15 255.606 114.475 258.509 114.475 262.09C114.475 265.672 154.15 268.575 203.091 268.575Z" fill="#28282B"/>
<path d="M200.648 262.773C203.783 262.773 206.325 260.967 206.325 258.74C206.325 256.512 203.783 254.706 200.648 254.706C197.513 254.706 194.972 256.512 194.972 258.74C194.972 260.967 197.513 262.773 200.648 262.773Z" fill="#A8B2E0"/>
<path d="M245.328 262.773C248.463 262.773 251.005 260.967 251.005 258.74C251.005 256.512 248.463 254.706 245.328 254.706C242.193 254.706 239.651 256.512 239.651 258.74C239.651 260.967 242.193 262.773 245.328 262.773Z" fill="#A8B2E0"/>
<path d="M261.808 257.267C264.943 257.267 267.485 255.461 267.485 253.233C267.485 251.006 264.943 249.2 261.808 249.2C258.673 249.2 256.132 251.006 256.132 253.233C256.132 255.461 258.673 257.267 261.808 257.267Z" fill="#23242E"/>
<path d="M213.833 257.267C216.968 257.267 219.509 255.461 219.509 253.233C219.509 251.006 216.968 249.2 213.833 249.2C210.697 249.2 208.156 251.006 208.156 253.233C208.156 255.461 210.697 257.267 213.833 257.267Z" fill="#23242E"/>
<path d="M229.763 255.807C259.9 255.807 284.331 253.262 284.331 250.123C284.331 246.985 259.9 244.44 229.763 244.44C199.626 244.44 175.195 246.985 175.195 250.123C175.195 253.262 199.626 255.807 229.763 255.807Z" fill="#CC5733"/>
<path d="M210.468 248.58C197.744 248.58 185.942 248.744 176.219 249.023C175.548 249.379 175.195 249.747 175.195 250.123C175.195 251.313 178.705 252.417 184.703 253.329C192.514 253.483 201.249 253.568 210.468 253.568C243.723 253.568 270.682 252.452 270.682 251.074C270.682 249.697 243.723 248.58 210.468 248.58Z" fill="#B03916"/>
<path d="M199.186 139.214L250.859 152.598L249.499 165.813C249.499 165.813 208.006 150.44 204.564 149.666C204.564 149.666 201.982 155.473 200.907 153.537C199.598 151.182 202.412 147.73 202.412 147.73C202.412 147.73 194.78 144.418 193.592 141.924C192.302 139.214 196.819 141.537 196.819 141.537C196.819 141.537 195.744 140.375 196.389 139.601C196.789 139.121 198.755 140.375 198.755 140.375C198.755 140.375 198.11 138.827 199.186 139.214V139.214Z" fill="#97584B"/>
<path d="M211.795 186.517C211.795 186.517 201.316 186.129 199.391 178.434C196.025 164.975 222.28 137.465 236.757 137.567C250.585 137.666 255.424 146.948 255.424 146.948L211.795 186.517Z" fill="#4F30BD"/>
<path d="M238.354 137.623C236.818 141.648 237.691 146.774 237.691 146.774C237.691 146.774 213.426 170.281 209.727 169.437C207.956 169.033 204.997 167.081 202.394 165.157C199.754 170.064 198.475 174.77 199.391 178.434C201.316 186.129 211.795 186.518 211.795 186.518L255.424 146.948C255.424 146.948 250.958 138.387 238.354 137.623L238.354 137.623Z" fill="#3C248F"/>
<path d="M261.68 148.789C263.116 145.161 258.721 140.016 251.865 137.297C245.009 134.578 238.288 135.315 236.852 138.943C235.417 142.57 239.811 147.715 246.667 150.435C253.523 153.154 260.245 152.417 261.68 148.789Z" fill="#9280D2"/>
<path d="M228.532 190.14C228.532 190.14 233.824 222.07 222.488 232.423C211.151 242.775 176.593 228.205 176.593 228.205C176.593 228.205 172.552 241.925 166.076 245.946L173.684 221.439L206.559 228.087C206.559 228.087 198.82 193.394 212.189 181.274L228.532 190.14Z" fill="#7D2F1F"/>
<path d="M188.928 224.521L173.684 221.438L170.698 231.059L174.969 232.77C176.023 230.14 176.594 228.205 176.594 228.205C176.594 228.205 180.694 229.933 186.532 231.777L188.928 224.521L188.928 224.521Z" fill="#D3D9F0"/>
<path d="M221.968 190.821L257.773 220.523C257.773 220.523 242.087 239.641 239.018 251.59H265.275C265.275 251.59 254.363 246.81 246.861 246.81C246.861 246.81 265.293 227.801 267.662 219.84C272.436 203.794 258.114 184.676 258.114 184.676L221.968 190.821Z" fill="#7D2F1F"/>
<path d="M246.405 236.344C243.65 240.719 241.092 245.381 239.669 249.461L246.535 249.663L248.669 246.896C248.051 246.842 247.445 246.81 246.861 246.81C246.861 246.81 249.316 244.278 252.548 240.676L246.405 236.344Z" fill="#D3D9F0"/>
<path d="M258.114 184.676L221.968 190.821L256.13 219.16C260.299 217.725 264.605 216.095 268.595 214.318C269.382 199.72 258.114 184.676 258.114 184.676L258.114 184.676Z" fill="#3C248F"/>
<path d="M205.06 193.015C205.06 193.015 206.325 215.841 236.355 218.041C265.21 220.155 267.485 200.486 267.485 200.486L205.06 193.015Z" fill="#4F30BD"/>
<path d="M228.532 190.139L212.189 181.273C202.976 189.625 203.788 208.695 205.182 219.746C210.344 222.601 217.69 225.451 226.819 225.82C232.228 212.452 228.532 190.139 228.532 190.139Z" fill="#4F30BD"/>
<path d="M212.188 181.273C202.976 189.625 203.787 208.695 205.182 219.746C207.972 221.289 211.4 222.829 215.403 223.979C215.403 223.979 215.5 219.804 216.196 214.777C216.892 209.751 218.423 207.069 218.423 207.069C218.423 207.069 223.103 207.983 229.74 208.556C229.965 198.796 228.531 190.139 228.531 190.139L212.188 181.273Z" fill="#3C248F"/>
<path d="M229.74 208.556C229.74 208.556 247.69 210.216 258.779 204.73L236.272 191.986L227.26 191.542L229.74 208.556Z" fill="#3C248F"/>
<path d="M239.018 251.59H265.275C265.275 251.59 254.363 246.81 246.861 246.81H240.711C239.985 248.482 239.402 250.092 239.018 251.59Z" fill="#23242E"/>
<path d="M258.033 141.896C258.033 141.896 219.067 153.839 201.791 191.727C201.791 191.727 234.505 217.404 270.527 202.687C270.527 202.687 265.381 180.455 277.878 164.486L258.033 141.896Z" fill="#D3D9F0"/>
<path d="M260.293 144.469L258.033 141.896C258.033 141.896 219.067 153.839 201.791 191.727C201.791 191.727 211.748 199.542 226.724 204.077C236.863 170.399 254.966 149.958 260.293 144.469Z" fill="#A8B2E0"/>
<path d="M258.033 141.896C258.033 141.896 258.421 158.06 273.258 172.248C274.432 169.581 275.943 166.958 277.878 164.485L258.033 141.896V141.896Z" fill="#A8B2E0"/>
<path d="M233.096 163.501C233.096 163.501 227.226 181.13 246.109 194.896C251.303 198.683 257.844 201.978 264.597 204.765C266.56 204.188 268.538 203.499 270.527 202.687C270.527 202.687 269.307 197.412 269.498 190.157C251.801 182.493 234.629 172.783 233.096 163.5L233.096 163.501Z" fill="#A8B2E0"/>
<path d="M223.802 183.565C216.89 183.565 209.834 181.048 206.844 177.385L210.335 174.529C212.873 177.638 220.147 179.349 225.352 178.999C229.753 178.702 235.807 177.031 239.654 170.756C241.244 168.162 241.607 165.09 240.731 161.624C239.154 155.38 233.885 149.487 230.688 147.633L232.947 143.727C237.504 146.369 243.297 153.371 245.102 160.517C246.27 165.142 245.715 169.498 243.496 173.117C239.71 179.293 233.373 182.981 225.655 183.502C225.041 183.544 224.421 183.564 223.802 183.564L223.802 183.565Z" fill="#4F30BD"/>
<path d="M225.352 178.999C220.147 179.349 212.873 177.638 210.335 174.529L206.844 177.385C209.834 181.048 216.89 183.565 223.802 183.565C224.421 183.565 225.041 183.544 225.655 183.503C232.021 183.073 237.446 180.487 241.276 176.129L241.835 174.969L237.859 173.194C234.091 177.482 229.117 178.745 225.351 178.999L225.352 178.999Z" fill="#3C248F"/>
<path d="M173.684 221.438L166.076 245.945C172.552 241.925 176.593 228.205 176.593 228.205L178.077 222.327L173.684 221.438Z" fill="#23242E"/>
<path d="M263.416 170.335C267.83 170.335 271.408 161.986 271.408 151.687C271.408 141.388 267.83 133.04 263.416 133.04C259.002 133.04 255.424 141.388 255.424 151.687C255.424 161.986 259.002 170.335 263.416 170.335Z" fill="#7D2F1F"/>
<path d="M263.416 133.04C261.212 133.04 259.216 135.122 257.77 138.49C257.803 140.613 258.009 142.814 258.407 145.076C259.827 153.147 263.422 160.63 268.251 166.534C270.169 163.128 271.408 157.746 271.408 151.687C271.408 141.389 267.83 133.04 263.416 133.04Z" fill="#23242E"/>
<path d="M285.487 113.58C293.918 124.885 292.421 136.405 282.143 139.311C271.866 142.216 256.699 135.408 248.269 124.103C239.838 112.799 241.335 101.279 251.612 98.373C261.89 95.4671 277.056 102.276 285.487 113.58Z" fill="#23242E"/>
<path d="M285.989 114.272C285.826 114.042 285.659 113.811 285.487 113.58C282.852 110.047 279.559 106.953 275.962 104.457C270.811 101.89 265.577 100.268 264.191 101.991C261.667 105.129 280.114 114.941 285.989 114.272H285.989Z" fill="#707387"/>
<path d="M302.926 141.088C307.967 156.745 301.507 169.437 288.496 169.437C275.486 169.437 260.852 156.745 255.811 141.088C250.77 125.432 257.23 112.74 270.24 112.74C283.251 112.74 297.885 125.432 302.926 141.088Z" fill="#97584B"/>
<path d="M273.484 150.62C266.5 138.755 265.914 124.444 267.107 113.004C256.228 114.893 251.192 126.746 255.811 141.088C260.852 156.745 275.486 169.437 288.496 169.437C293.142 169.437 296.951 167.818 299.701 165.025C292.052 166.02 281.491 164.223 273.484 150.62Z" fill="#7D2F1F"/>
<path d="M259.986 129.712C263.092 133.993 262.726 137.463 259.169 137.463C255.611 137.463 250.209 133.993 247.103 129.712C243.997 125.431 244.363 121.96 247.92 121.96C251.477 121.96 256.88 125.431 259.986 129.712Z" fill="#7D2F1F"/>
<path d="M247.724 126.52C247.724 126.52 247.269 124.058 249.819 124.149C252.369 124.24 255.739 129.164 254.009 130.349C252.278 131.535 250.73 128.07 252.187 127.34C252.187 127.34 251.108 125.349 249.408 124.87C247.918 124.449 247.724 126.52 247.724 126.52Z" fill="#23242E"/>
<path d="M261.838 114.466C259.857 110.337 256.697 109.812 254.778 113.292C252.859 116.773 252.909 122.941 254.89 127.07C256.871 131.198 260.031 131.724 261.95 128.243C263.869 124.762 263.819 118.594 261.838 114.466Z" fill="#23242E"/>
<path d="M271.408 125.956C271.408 125.956 272.858 119.989 280.75 122.731L271.408 125.956Z" fill="#23242E"/>
<path d="M286.398 121.215C286.398 121.215 290.207 116.402 296.232 122.196L286.398 121.215Z" fill="#23242E"/>
<path d="M278.398 127.716C279.12 127.453 279.968 127.679 280.851 128.282C280.821 128.185 280.79 128.088 280.755 127.991C280.079 126.133 278.639 124.952 277.539 125.354C276.439 125.755 276.095 127.586 276.771 129.444C276.807 129.541 276.845 129.635 276.885 129.728C277.173 128.698 277.677 127.979 278.398 127.716Z" fill="#23242E"/>
<path d="M294.438 132.153C295.538 131.752 295.779 129.639 294.977 127.435C294.175 125.23 292.633 123.768 291.533 124.169C290.433 124.571 290.191 126.683 290.994 128.888C291.796 131.092 293.338 132.554 294.438 132.153Z" fill="#23242E"/>
<path d="M287.599 125.685L290.508 134.547C290.508 134.547 300.624 134.421 299.992 137.333C299.36 140.244 292.688 141.865 289.468 138.61C283.909 132.989 287.599 125.685 287.599 125.685Z" fill="#7D2F1F"/>
<path d="M297.604 144.274C297.604 144.274 288.716 146.596 279.857 137.567C279.857 137.567 282.805 151.792 289.431 152.456C295.146 153.028 297.604 144.274 297.604 144.274Z" fill="white"/>
<path d="M293.631 204.685C279.368 203.547 257.581 195.24 242.903 185.62L250.859 174.969C262.99 183.231 289.908 195.423 289.908 195.423C289.908 195.423 292.779 192.341 293.041 192.114C294.077 191.219 295.214 190.209 296.23 190.134C296.759 190.095 297.179 190.361 297.241 190.914C297.299 191.436 297.037 192.142 296.661 192.78C295.968 193.959 294.896 195.251 293.964 196.241C293.964 196.241 304.645 197.094 306.058 198.165C307.471 199.236 306.145 200.99 303.097 200.979C303.097 200.979 304.024 203.061 300.623 202.783C300.623 202.783 301.241 204.171 299.518 204.245C297.795 204.319 296.116 203.967 296.116 203.967C296.116 203.967 296.956 204.95 293.631 204.685L293.631 204.685Z" fill="#97584B"/>
<path d="M250.859 174.968L242.004 189.962C242.004 189.962 224.822 168.637 236.272 159.095C243.442 153.12 250.859 174.968 250.859 174.968Z" fill="#D3D9F0"/>
<path d="M150.267 182.898C150.267 182.898 183.915 193.182 208.483 193.316C233.051 193.45 239.029 188.467 239.029 188.467C239.029 188.467 227.505 199.111 205.788 197.743C174.412 195.766 150.267 182.898 150.267 182.898Z" fill="white"/>
<path d="M179.813 141.924C179.813 141.924 193.36 151.434 206.325 152.518C206.325 152.518 199.56 154.503 190.781 150.366C182.866 146.635 179.813 141.924 179.813 141.924L179.813 141.924Z" fill="white"/>
<path d="M161.378 176.527C161.378 176.527 169.238 179.548 181.842 181.019C192.165 182.224 200.478 182.403 200.478 182.403C200.478 182.403 192.615 184.676 181.762 183.14C168.512 181.265 161.378 176.527 161.378 176.527Z" fill="white"/>
</g>
<defs>
<clipPath id="clip0_116_384">
<rect width="430" height="287" fill="white"/>
</clipPath>
</defs>
</svg>
