<svg width="250" height="250" viewBox="0 0 250 250" fill="none" xmlns="http://www.w3.org/2000/svg">
<path d="M211.724 42.0361L211.722 41.9016C211.679 40.0342 209.288 34.0232 211.834 33.9775C215.481 36.0876 212.19 39.7417 218.188 36.1751C219.505 38.2732 222.809 40.9746 223.125 43.2515C222.388 45.9102 208.277 64.1572 205.869 66.7561C207.302 68.6011 207.81 70.3906 208.182 72.6848C208.005 73.5391 207.996 73.675 208.057 74.5456L208.022 75.1416C208.357 76.2852 209.129 78.7085 209.283 79.7664C209.02 81.4778 208.958 82.1377 208.247 83.7334L207.771 85.8875C206.079 88.2651 203.305 90.5852 200.486 91.4558C198.664 91.6802 197.596 91.8496 195.741 91.605C190.513 90.6956 189.148 87.6304 187.071 87.2478C187.99 88.7297 189.754 91.1365 189.333 92.9829C189.19 93.6067 188.848 93.9353 188.309 94.2283C187.291 94.7825 185.699 96.2148 184.681 96.4558C184.186 96.5728 183.613 96.1482 183.235 96.2395C182.39 96.4436 182.626 98.0623 181.053 98.3096C179.422 97.4233 179.307 94.4302 177.453 93.7346C173.612 92.2942 170.372 98.1968 161.775 90.7434C151.329 91.7317 141.757 93.6062 131.503 95.5015L101.718 100.986C102.239 102.78 103.154 105.586 103.536 107.328C104.509 111.203 107.059 116.638 107.677 120.117L106.301 121.021C105.176 117.888 102.452 110.852 102.006 107.824C101.412 105.123 100.522 104.621 100.194 100.919C95.845 102.188 92.9624 102.67 88.5825 103.668L75.7012 106.736C73.3198 107.293 70.249 107.562 68.0852 108.619C67.1775 109.062 67.2166 109.054 66.3308 108.686L66.1274 108.171C66.1843 108.009 66.4023 107.505 66.5186 107.4C70.6609 103.654 76.4929 100.142 80.9521 96.7703C86.9053 92.2686 92.3857 88.2573 98.396 83.9873C99.2529 83.3784 101.077 82.3345 102.024 82.2322C105.732 81.832 109.987 82 113.76 81.9827C113.329 79.29 113.322 74.2485 113.317 71.4741C116.11 69.2859 139.679 52.1213 141.04 51.8701C143.405 51.4334 164.276 58.5703 166.65 59.9438C169.45 59.8953 172.3 59.4309 175.083 59.0706C180.945 58.3115 184.552 59.8865 189.83 61.8179C190.463 60.9963 189.845 58.5952 192.787 58.1724C193.671 58.0452 195.041 58.3589 195.929 58.5444C201.415 54.1111 208.125 48.1638 211.724 42.0361ZM160.631 88.9822C159.448 86.4211 158.978 86.0669 158.767 83.2087C156.641 83.7402 150.607 83.5671 148.235 83.5979C139.088 83.7512 129.94 83.8005 120.792 83.7463C115.528 83.7529 110.083 83.8093 104.813 83.9099C103.952 83.9263 101.764 84.2388 101.092 84.6296C97.7649 86.563 94.1072 89.3665 90.9844 91.6506C84.689 96.3516 78.3081 100.937 71.8447 105.404C75.7173 105.008 78.0286 104.036 81.6606 103.226C85.0857 102.462 88.9019 101.528 92.313 100.826C109.642 97.1797 127.049 93.9133 144.521 91.0293C148.968 90.3398 156.355 88.7158 160.631 88.9822ZM185.596 83.5193C185.854 82.9429 185.707 82.6584 185.553 82.0317C183.583 82.0234 174.967 81.7734 173.789 82.4331L173.662 82.8957C173.792 83.0996 173.862 83.2627 174.042 83.3987C176.193 87.3215 179.95 84.1113 182.885 84.7839C184.649 85.2935 184.866 85.2136 185.925 86.613C186.498 86.4624 186.256 86.6028 186.669 86.1685C186.696 85.2578 186.056 84.3389 185.596 83.5193ZM116.554 71.4253C123.265 71.8159 129.871 72.1777 136.534 73.1055C138.637 73.3982 143.68 73.4807 145.521 74.054C148.03 71.8892 149.758 68.6938 153.286 66.1038C156.683 63.6101 160.173 62.6057 163.057 60.4927C158.085 59.2617 146.576 55.3022 141.586 53.3821C137.444 56.1685 132.906 59.7153 128.789 62.6978C125.372 65.1731 119.656 68.8281 116.554 71.4253ZM144.778 75.5088C140.629 75.6069 135.03 74.6821 130.749 74.2483C125.775 73.7444 119.973 73.7856 115.192 73.103C115.305 76.1399 115.429 78.8027 115.296 81.8408C121.323 81.6726 127.503 81.9636 133.542 81.8643C136.101 81.822 139.268 81.9929 141.759 81.6587C142.889 79.5369 143.108 77.7505 144.778 75.5088Z" fill="#2b3033"/>
<path d="M174.042 83.3987C173.862 83.2627 173.792 83.0996 173.662 82.8957L173.789 82.4331C174.967 81.7734 183.583 82.0234 185.553 82.0317C185.707 82.6584 185.854 82.9429 185.596 83.5193C183.211 83.978 180.659 83.7121 178.237 83.8091C176.528 83.8335 175.683 83.9136 174.042 83.3987Z" fill="#FED058" fill-opacity="0.988235"/>
<path d="M174.042 83.3987C175.683 83.9136 176.528 83.8335 178.237 83.8091L178.188 84.1492C179.76 84.4372 182.003 83.8655 182.904 84.3955L182.885 84.7839C179.95 84.1113 176.193 87.3215 174.042 83.3987Z" fill="#010000" fill-opacity="0.0235294"/>
<path d="M113.317 71.4741C116.11 69.2859 139.679 52.1213 141.04 51.8701C143.405 51.4333 164.276 58.5703 166.65 59.9438C165.105 60.3411 164.681 60.4302 163.057 60.4927C158.085 59.2617 146.576 55.3022 141.586 53.3821C137.444 56.1685 132.906 59.7153 128.789 62.6977C125.372 65.1731 119.656 68.8281 116.554 71.4253C123.265 71.8159 129.871 72.1777 136.534 73.1055C138.637 73.3982 143.68 73.4807 145.521 74.054C145.399 74.2996 144.898 75.352 144.778 75.5088C140.629 75.6069 135.03 74.6821 130.749 74.2483C125.775 73.7444 119.973 73.7856 115.192 73.103C115.305 76.1399 115.429 78.8027 115.296 81.8408C121.323 81.6726 127.503 81.9636 133.542 81.8643C136.101 81.822 139.268 81.9929 141.759 81.6587C145.31 82.5308 157.813 81.3892 158.874 82.6663L158.767 83.2087C156.641 83.7402 150.607 83.5671 148.235 83.5979C139.088 83.7512 129.94 83.8005 120.792 83.7463C115.528 83.7529 110.083 83.8093 104.813 83.9099C103.952 83.9263 101.764 84.2388 101.092 84.6296C97.7649 86.563 94.1072 89.3665 90.9844 91.6506C84.689 96.3516 78.3081 100.937 71.8447 105.404C75.7173 105.008 78.0286 104.036 81.6606 103.226C85.0857 102.462 88.9019 101.528 92.313 100.826C109.642 97.1797 127.049 93.9133 144.521 91.0293C148.968 90.3398 156.355 88.7158 160.631 88.9822C160.868 89.3328 161.624 90.4087 161.775 90.7434C151.329 91.7317 141.757 93.6062 131.503 95.5015L101.718 100.986C102.239 102.78 103.154 105.586 103.536 107.328C104.509 111.203 107.059 116.638 107.677 120.117L106.301 121.021C105.176 117.888 102.452 110.852 102.006 107.824C101.412 105.123 100.522 104.621 100.194 100.919C95.845 102.188 92.9624 102.67 88.5825 103.668L75.7012 106.736C73.3198 107.293 70.249 107.562 68.0852 108.619C67.1775 109.062 67.2166 109.054 66.3308 108.686L66.1274 108.171C66.1843 108.009 66.4023 107.505 66.5186 107.4C70.6609 103.654 76.4929 100.142 80.9521 96.7703C86.9053 92.2686 92.3857 88.2573 98.396 83.9873C99.2529 83.3784 101.077 82.3345 102.024 82.2322C105.732 81.832 109.987 82 113.76 81.9827C113.329 79.29 113.322 74.2485 113.317 71.4741Z" fill="#FED058"/>
<path d="M143.021 80.7834C144.726 75.0129 152.648 67.1189 157.948 64.2034C164.956 60.3484 177.512 58.7009 185.118 60.8594C184.831 61.1518 184.415 61.6172 184.094 61.8335C178.901 61.7478 180.65 65.5454 182.993 67.9963C170.162 66.6675 181.399 75.4097 186.528 76.6431C185.76 78.407 185.848 78.9348 185.603 80.7937C181.52 80.7395 177.436 80.7161 173.353 80.7236L173.514 77.8677C168.064 78.6926 165.699 78.1316 160.484 76.303C159.758 77.9744 159.338 78.8486 158.964 80.6287C154.871 80.9817 147.403 80.7778 143.021 80.7834Z" fill="#6CD3A8"/>
<path d="M208.022 75.1416C208.357 76.2852 209.129 78.7085 209.283 79.7664C209.02 81.4778 208.958 82.1377 208.247 83.7334L207.771 85.8875C206.079 88.2651 203.305 90.5852 200.486 91.4558C198.664 91.6802 197.596 91.8496 195.741 91.605C190.513 90.6956 189.148 87.6304 187.071 87.2478C186.454 87.1365 186.415 87.0488 185.925 86.613C186.498 86.4624 186.256 86.6028 186.669 86.1685C186.696 85.2578 186.056 84.3389 185.596 83.5193C185.854 82.9429 185.707 82.6585 185.553 82.0317C185.592 81.7686 185.594 81.0869 185.603 80.7937C185.848 78.9348 185.76 78.407 186.528 76.6431C191.357 79.3586 200.628 80.677 205.679 77.5259C205.955 77.3538 207.311 75.7532 207.844 75.2939L208.022 75.1416Z" fill="#A86C6C"/>
<path d="M195.741 91.6049C195.734 91.1706 195.742 90.7361 195.764 90.302C195.939 86.6091 198.01 87.3381 200.955 87.5171C200.663 88.9079 200.343 90.0361 200.486 91.4558C198.664 91.6801 197.596 91.8496 195.741 91.6049Z" fill="#F86765"/>
<path d="M202.621 82.1477C204.639 81.105 206.572 81.5528 208.116 83.1919L208.247 83.7334C207.517 83.7603 206.715 83.2224 206.035 82.8697C204.466 82.0562 203.469 83.3794 202.621 82.1477Z" fill="#2b3033"/>
<path d="M192.08 80.0515C193.402 79.9998 195.894 80.5205 196.19 82.0032C195.682 82.3516 195.916 82.2725 195.14 82.1296C193.355 80.4592 193.236 81.5478 191.147 81.1355L191.194 80.7048L192.08 80.0515Z" fill="#2b3033"/>
<path d="M192.419 85.0938C192.734 84.9014 193.13 84.9045 193.442 85.1021C193.754 85.2996 193.926 85.6567 193.886 86.0234C193.847 86.3901 193.602 86.7026 193.256 86.8291C192.788 86.9995 192.268 86.7881 192.052 86.3401C191.836 85.8921 191.995 85.3533 192.419 85.0938Z" fill="#2b3033"/>
<path d="M185.118 60.8594C186.42 61.3591 187.892 62.0088 188.795 63.0959L188.73 63.4712C187.385 63.7185 185.39 62.4543 184.094 61.8335C184.415 61.6172 184.831 61.1519 185.118 60.8594Z" fill="#53BF93"/>
<path d="M160.766 77.7788C165.642 78.4036 165.957 79.5642 171.854 79.2305C172.179 79.6394 172.156 81.6758 172.183 82.3386C175.101 86.7134 176.689 88.1211 181.433 85.4126C183.125 84.4463 189.804 90.7129 187.643 93.417C186.809 92.9946 187.025 92.8074 186.077 92.7053C185.405 93.4085 185.495 93.8437 185.258 94.9199L185.033 95.3218L184.598 95.4368C184.083 94.9607 183.818 94.7471 183.255 94.3406C182.373 94.301 182.71 94.207 181.982 94.6851C181.442 95.5034 181.415 96.759 181.305 97.7656C177.826 87.7686 175.03 94.9788 168.484 93.3235C160.611 91.3328 159.033 85.0935 160.766 77.7788Z" fill="#A86C6C"/>
<path d="M211.696 35.2847C212.759 35.9639 212.24 36.5381 213.281 37.917C215.36 39.0571 216.167 37.405 218.144 37.5962L218.455 37.9771C218.225 38.564 218.029 38.9001 217.724 39.4377L217.906 39.905C218.984 40.4287 219.343 39.564 220.48 39.9998C220.794 40.6736 220.47 40.9922 220.146 41.9048C220.569 43.051 220.977 42.054 221.982 43.2629C221.559 45.3311 209.12 61.1404 206.982 63.7791L205.352 65.5207C202.109 62.3286 200.87 60.8745 196.596 59.0981C201.268 55.6665 206.596 50.2788 210.32 45.8008C213.157 42.3882 212.224 39.469 211.696 35.2847Z" fill="#A86C6C"/>
<path d="M107.677 120.117C108.59 119.421 109.924 118.741 110.996 118.214C116.198 115.652 121.367 112.649 127.044 111.279C128.644 110.894 130.35 112.144 131.639 111.631C135.369 110.149 146.115 104.233 149.971 105.474C151.334 106.898 149.851 107.185 150.479 108.721C151.031 108.983 151.586 109.217 152.084 109.566C152.334 111.033 152.036 111.413 151.586 112.844C153.023 113.729 154.187 114.432 153.751 116.282C151.972 118.496 148.684 117.927 146.137 118.162C146.752 119.611 147.756 121.31 147.192 122.752C146.071 123.691 137.004 119.37 134.915 118.644C136.007 119.672 137.342 120.87 138.357 121.935C132.152 123.02 130.066 125.356 125.04 127.039L124.924 127.393C125.486 128.079 126.079 128.171 126.836 128.721C128.747 130.108 129.89 131.39 131.179 133.356C133.384 133.967 135.512 135.849 136.562 137.863L136.741 137.815C137.741 137.544 139.069 136.934 140.048 136.471C143.522 134.82 147.299 133.784 150.706 132.024C153.765 130.444 156.557 128.258 159.807 127.06C161.073 126.594 162.076 126.25 162.723 127.688C162.586 128.973 161.77 130.012 161.872 130.546C163.365 131.04 163.875 129.206 165.898 130.707C166.416 132.216 164.723 133.901 166.823 134.637C167.845 134.995 170.594 136.15 169.088 137.697C166.677 140.171 162.664 141.768 159.713 143.648C155.916 146.416 152.361 148.37 148.386 150.778C132.806 160.217 120.243 172.248 109.84 187.153C106.634 184.862 103.94 181.974 100.785 179.626C90.9561 172.313 76.709 169.307 64.6199 169.437C65.9412 167.604 70.0918 160.126 70.5994 158.12C70.4375 158.226 79.0742 146.464 79.6057 145.729C87.2722 135.125 96.6064 129.123 106.301 121.021L107.677 120.117Z" fill="#4285F4"/>
<path d="M107.677 120.117C108.59 119.421 109.924 118.741 110.996 118.214C116.198 115.652 121.367 112.649 127.044 111.279C128.644 110.894 130.35 112.144 131.639 111.631C135.369 110.149 146.115 104.233 149.971 105.474C151.334 106.898 149.851 107.185 150.479 108.721C151.031 108.983 151.586 109.217 152.084 109.566C152.334 111.033 152.036 111.413 151.586 112.844C153.023 113.729 154.187 114.432 153.751 116.282C151.972 118.496 148.684 117.927 146.137 118.162C146.752 119.611 147.756 121.31 147.192 122.752C146.071 123.691 137.004 119.37 134.915 118.644C136.007 119.672 137.342 120.87 138.357 121.935C132.152 123.02 130.066 125.356 125.04 127.039L124.924 127.393C125.486 128.079 126.079 128.171 126.836 128.721C128.747 130.108 129.89 131.39 131.179 133.356C129.57 133.567 127.562 133.584 126.083 133.961C119.753 135.575 112.929 141.481 107.393 143.802C102.393 143.896 101.098 138.942 105.643 136.935C106.541 136.292 106.731 136.45 106.903 135.4C107.492 131.784 112.038 132.678 113.957 132.118C112.073 126.232 120.556 127.99 123.068 126.839C127.352 124.877 131.645 123.173 135.957 121.327C133.845 118.073 131.094 114.838 128.812 111.633C125.786 112.359 121.315 114.31 118.409 115.615C102.765 122.641 88.6702 134.981 78.3533 148.579C76.2383 151.367 74.085 154.771 72.1338 157.725C74.3618 157.672 81.7192 157.48 83.2319 158.507C82.4307 159.022 73.2695 158.673 71.7197 158.57C70.4409 161.441 68.0332 165.442 66.4905 168.617C70.1265 169.28 74.8523 169.146 78.679 169.77C91.6575 171.886 100.223 176.868 109.476 185.695C110.698 184.469 112.592 181.755 113.77 180.234C115.859 177.517 118.08 174.904 120.426 172.405C127.966 164.234 136.539 157.081 145.927 151.126C149.14 149.065 152.474 147.393 155.607 145.364C154.621 144.268 149.239 135.212 148.66 133.727C144.839 135.409 140.795 136.948 137.073 138.83C136.951 138.652 136.677 138.086 136.562 137.863L136.741 137.815C137.741 137.544 139.069 136.934 140.048 136.471C143.522 134.82 147.299 133.784 150.706 132.024C153.765 130.444 156.557 128.258 159.807 127.06C161.073 126.594 162.076 126.25 162.723 127.688C162.586 128.973 161.77 130.012 161.872 130.546C163.365 131.04 163.875 129.206 165.898 130.707C166.416 132.216 164.723 133.901 166.823 134.637C167.845 134.995 170.594 136.15 169.088 137.697C166.677 140.171 162.664 141.768 159.713 143.648C155.916 146.416 152.361 148.37 148.386 150.778C132.806 160.217 120.243 172.248 109.84 187.153C106.634 184.862 103.94 181.974 100.785 179.626C90.9561 172.313 76.709 169.307 64.6199 169.437C65.9412 167.604 70.0918 160.126 70.5994 158.12C70.4375 158.226 79.0742 146.464 79.6057 145.729C87.2722 135.125 96.6064 129.123 106.301 121.021L107.677 120.117Z" fill="#2b3033"/>
<path d="M148.782 105.98L149.271 106.24C149.939 107.883 148.492 107.616 147.84 109.257C148.234 109.761 149.613 109.701 150.528 109.832C151.951 111.068 149.639 112.84 148.677 113.821C150.245 113.873 151.736 113.637 152.351 115.251C151.959 117.456 148.693 116.701 146.731 116.696C143.709 119.931 146.371 120.358 146.086 122.155C144.923 122.001 144.117 121.455 143.102 120.883C139.894 118.975 138.531 118.647 134.887 118.042C133.904 116.412 132.371 114.759 131.184 112.833C138.73 109.279 140.839 108.161 148.782 105.98Z" fill="#FECDB6"/>
<path d="M161.175 127.195C162.095 128.094 159.969 129.725 160.867 131.27C162.22 131.85 164.092 131.256 165.521 130.916C164.986 132.267 164.783 133.167 164.446 134.567C165.497 135.024 167.549 135.807 168.152 136.663L168.024 137.229C166.627 139.028 160.547 142.063 158.267 143.214L156.192 144.125C155.052 143.022 150.602 135.612 149.627 133.887C153.525 131.548 157.026 129.243 161.175 127.195Z" fill="#FECDB6"/>
<path d="M156.077 133.561C158.224 133.468 161.232 135.484 160.597 137.991C158.939 139.825 156.696 137.879 155.226 136.663L154.849 136.352L154.906 135.99C155.825 135.908 159.066 138.044 160.118 137.721C159.969 135.673 156.681 134.939 156.077 133.561Z" fill="#2b3033"/>
<path d="M131.179 133.356C133.384 133.967 135.512 135.849 136.562 137.863C136.677 138.086 136.951 138.652 137.073 138.83C140.765 148.466 131.873 156.927 122.255 152.866C120.433 154.004 119.108 154.852 117.417 156.159C111.744 153.311 108.714 151.835 103.386 148.152C104.333 147.239 107.111 144.868 107.393 143.802C112.929 141.481 119.753 135.575 126.083 133.961C127.562 133.584 129.57 133.567 131.179 133.356Z" fill="#FECDB6"/>
<path d="M132.311 141.036C133.477 141.603 133.901 144.137 133.274 145.35C132.499 145.783 132.781 145.674 131.792 145.563C130.961 144.889 130.191 143.956 129.474 143.148L132.311 141.036Z" fill="#F86765"/>
<path d="M126.954 147.43C128.167 147.576 130.541 147.452 131.235 147.872L131.254 148.685C129.383 149.195 127.62 149.681 126.954 147.43Z" fill="#2b3033"/>
<path d="M123.883 140.519L124.224 140.794C124.264 140.928 124.304 141.063 124.345 141.197C123.497 142.174 122.683 143.555 122.155 144.604L121.658 144.266C121.414 143.029 122.782 141.068 123.883 140.519Z" fill="#2b3033"/>
<path d="M133.808 135.742L133.825 136.356C133.211 137.346 132.113 137.555 130.935 137.984C130.783 136.344 132.53 136.127 133.808 135.742Z" fill="#2b3033"/>
<path d="M68.3276 171.872C70.0928 171.856 80.1069 173.681 81.9883 174.168C94.1213 177.308 105.16 182.733 111.925 193.723C119.389 205.847 116.828 221.272 113.466 234.366C109.172 234.312 103.748 234.036 99.3848 233.854C99.2673 233.85 98.8213 233.662 98.8118 233.625C98.2822 231.636 99.4658 226.772 99.5483 224.488C99.8247 216.834 97.9846 210.57 93.8826 204.228C89.7598 197.596 84.3545 194.611 77.3442 191.857L77.26 191.918C68.7651 198.083 61.9497 200.496 51.1887 198.995C42.4465 197.775 33.4033 192.443 28.1833 185.239C30.3726 180.233 32.0312 178.062 34.4268 173.567C40.5435 181.037 58.1086 184.034 64.7188 175.829C65.7288 174.576 67.2034 172.994 68.3276 171.872Z" fill="#FED058"/>
<path d="M134.977 12.4571L135.502 12.4325C135.953 12.839 136.153 15.1662 137.022 16.8599C138.087 17.5308 140.144 18.7647 141.307 18.9424C147.645 20.0313 154.916 13.6744 161.003 16.6691C168.108 20.1635 165.005 22.9011 162.776 27.5708L163.238 30.4602L165.714 32.6663C171.601 33.105 179.828 31.7849 183.975 36.9019C186.746 40.4971 187.706 45.3626 187.35 49.7981C187.075 53.2231 184.902 60.2869 181.117 54.6343C179.673 51.5911 179.441 46.3472 178.415 43.8003C175.673 36.9878 162.259 42.0056 156.585 39.1123C151.587 36.5637 152.79 34.1565 151.09 29.5039C150.209 27.092 148.373 26.1318 146.262 25.23C138.892 26.5796 130.702 32.9158 124.883 24.2962C124.667 23.2504 122.858 19.7852 123.463 18.9095C125.564 15.8681 131.839 14.0679 134.977 12.4571Z" fill="#FEAFB6"/>
<path d="M208.057 74.5456C207.996 73.675 208.005 73.5391 208.182 72.6848C211.194 73.2637 238.262 81.7725 239.22 82.7434C238.885 84.0884 229.441 87.0227 227.827 87.3611C227.049 87.3076 226.165 87.397 225.431 87.2114C225.764 86.853 226.068 86.5051 226.388 86.1345L226.969 85.7166L230.469 84.3381C229.249 84.4209 227.739 84.4434 226.613 84.8455C221.95 85.146 217.284 85.395 212.615 85.5923C211.159 85.6555 209.079 85.8962 207.771 85.8875L208.247 83.7334C208.958 82.1377 209.02 81.4778 209.283 79.7664C211.72 79.3791 220.056 80.198 222.954 80.4316C223.569 80.6868 226.316 80.6982 227.112 80.7153C225.854 80.2585 224.671 79.8835 223.396 79.4873C220.361 78.1199 216.6 77.2598 213.409 76.2637C211.726 75.738 209.513 75.4355 208.057 74.5456Z" fill="#FED058"/>
<path d="M23.8201 170.137C25.5207 170.159 30.5456 172.336 31.2895 174.095C31.633 174.906 29.5571 176.622 28.9138 177.119C22.7384 181.887 18.6957 187.355 14.9915 194.194C14.3407 195.499 13.272 198.226 11.7759 198.455C11.2666 197.942 11.063 197.109 11.1449 196.412C12.1632 187.732 17.9036 175.974 23.8201 170.137Z" fill="#2b3033" fill-opacity="0.988235"/>
<path d="M99.7333 235.938C108.669 235.251 120.729 237.552 129.048 240.906C129.947 241.269 130.52 241.585 130.841 242.451L130.53 242.927C129.898 243.373 129.367 243.298 128.601 243.295C123.366 242.905 118.103 242.433 112.849 242.606C110.836 242.672 99.0229 243.775 98.3107 243.414C97.6486 242.136 98.3007 238.458 98.4875 236.893C98.5444 236.416 99.287 236.159 99.7333 235.938Z" fill="#2b3033"/>
<path d="M226.388 86.1345C226.068 86.5051 225.764 86.853 225.431 87.2114C226.165 87.397 227.049 87.3076 227.827 87.3611C221.28 89.5283 214.784 91.8132 208.204 93.9458C191.555 99.3413 174.649 103.918 157.715 108.329C155.886 108.806 153.954 109.44 152.084 109.566C151.586 109.217 151.031 108.983 150.479 108.721C150.715 108.623 151.212 108.272 151.389 108.221C167.071 103.723 182.854 99.853 198.516 95.1113C207.466 92.4014 217.468 88.2993 226.388 86.1345Z" fill="#FED058"/>
<path d="M88.9246 68.4384C89.8718 68.3984 91.3831 68.3235 92.1646 68.895L92.1396 69.278C90.6602 70.0507 88.7163 69.2253 85.9954 70.426C81.3704 72.4668 78.8481 75.0622 74.0935 76.7807C66.7463 79.436 60.8635 72.3493 54.2458 73.4699C46.5569 74.7719 45.4038 79.3979 36.4937 78.0615C35.4021 77.7453 33.6086 76.969 33.5654 75.6963C34.2358 75.424 38.1787 76.9878 40.29 76.7756C46.1331 76.1887 49.6282 71.8715 55.2839 71.6572C60.2598 71.1513 66.5906 76.873 71.3804 75.8147C78.4355 74.2556 81.21 69.5766 88.9246 68.4384Z" fill="#2b3033" fill-opacity="0.945098"/>
<path d="M51.9135 80.8914C61.3889 80.4627 62.5886 85.6436 71.3112 85.3721C73.6853 85.2981 74.5151 83.3269 75.9475 83.0774C76.8913 84.0611 74.3789 85.9881 73.6479 86.6614C65.1313 88.8484 61.7097 82.5879 53.6245 82.5083C50.4418 82.4771 46.0673 83.9002 43.8317 86.1165C42.6098 87.3577 39.1125 89.8069 37.4304 90.0877C32.9899 90.8281 30.4677 87.9141 27.0437 85.971C26.0808 85.4248 23.3673 85.1023 22.1195 84.3018L22.1874 84.0425C27.0271 81.9944 33.1083 89.6326 36.3815 88.7547C42.1801 87.1992 44.0156 81.7993 51.9135 80.8914Z" fill="#2b3033" fill-opacity="0.941176"/>
<path d="M91.8291 60.1387C93.2011 60.0638 97.9878 59.7967 98.4419 61.5496C97.5881 62.4414 93.6816 61.3142 92.0188 61.6414C86.0666 62.8128 81.0586 67.0879 74.8659 67.0332C70.8935 66.9978 67.9201 64.6231 63.9878 64.5796C60.3237 64.4864 57.3972 65.8128 53.7866 65.1165C52.748 64.9551 51.4179 64.3743 50.4089 63.9815C49.7451 63.0816 49.082 62.2818 49.6306 61.1722C50.686 61.3001 52.2575 63.6751 54.7221 63.9463C57.9299 64.2996 60.9121 62.7618 63.83 63.003C68.4912 63.3885 73.0197 66.3072 77.916 65.1502C83.5671 64.0127 85.9121 61.115 91.8291 60.1387Z" fill="#2b3033" fill-opacity="0.941176"/>
<path d="M116.532 194.943C120.453 196.104 123.555 207.634 122.944 211.845C122.349 211.573 121.506 206.031 121.336 205.031C120.801 201.874 117.201 197.516 116.532 194.943Z" fill="#2b3033" fill-opacity="0.917647"/>
<path d="M38.2336 154.407C40.2112 154.329 51.9534 154.384 53.1545 154.747L53.3103 155.092C52.4502 155.642 52.1162 155.482 50.9866 155.544C48.2229 155.416 37.7891 155.496 35.9868 155.09L35.8364 154.785C36.4978 154.34 37.405 154.428 38.2336 154.407Z" fill="#2b3033" fill-opacity="0.94902"/>
<path d="M36.9656 201.354C37.7869 201.612 41.6003 205.145 44.5227 205.621C46.0171 205.865 50.5129 205.94 51.1924 206.474L51.2126 207.071C50.6321 207.136 50.0188 207.167 49.4385 207.22C46.3486 207.499 37.0789 204.951 36.9656 201.354Z" fill="#2b3033" fill-opacity="0.917647"/>
<path d="M118.466 192.037C121.345 192.827 124.885 202.479 125.445 205.401C125.163 205.422 125.09 205.375 124.8 205.309C123.743 203.965 122.085 198.226 120.636 196.243C120.051 195.442 118.557 193.056 118.466 192.037Z" fill="#2b3033" fill-opacity="0.898039"/>
<path d="M34.2742 204.29C35.5608 204.445 37.2449 206.384 38.5437 207.1C40.1157 207.967 43.7048 208.852 44.8774 209.902C41.5742 210.094 35.5208 207.49 34.2742 204.29Z" fill="#2b3033" fill-opacity="0.905882"/>
<path d="M49.9534 158.757C51.322 158.612 58.8811 158.756 59.9609 159.454L60.0515 160.059C57.7051 160.26 53.6174 160.15 51.2376 159.682C50.3674 159.51 50.3354 159.365 49.9534 158.757Z" fill="#2b3033" fill-opacity="0.921569"/>
<path d="M57.5425 147.729C59.2148 147.924 66.1521 148.175 66.8687 148.832L66.6287 149.306C66.1692 149.329 65.7095 149.344 65.2493 149.35C63.374 149.381 58.7451 149.617 57.4832 148.398L57.5425 147.729Z" fill="#2b3033" fill-opacity="0.929412"/>
<path d="M130.474 7.9765C130.975 9.04227 128.895 13.0317 127.988 13.5622C126.272 11.8146 129.001 8.96151 130.474 7.9765Z" fill="#FEAFB6" fill-opacity="0.988235"/>
<path d="M134.123 6.71265L134.607 6.96548C134.956 8.11211 133.266 10.9827 132.301 11.6734C130.647 10.3663 133.124 7.91865 134.123 6.71265Z" fill="#FEAFB6" fill-opacity="0.984314"/>
<path d="M137.411 5.95117L137.992 6.24319C138.292 7.5364 136.971 9.39712 136.272 10.6843C135.898 10.5517 135.896 10.5015 135.585 10.2509C135.074 8.72825 136.401 6.98027 137.411 5.95117Z" fill="#FEAFB6"/>
<path d="M126.152 10.1296C126.853 10.5781 126.656 10.3198 126.909 11.0901C126.76 12.3605 125.837 13.4021 125.015 14.3397C124.427 14.1793 124.655 14.3446 124.328 13.8086C124.398 12.2331 125.18 11.3397 126.152 10.1296Z" fill="#FEAFB6" fill-opacity="0.984314"/>
<path d="M65.2061 157.956C66.3032 157.421 69.6509 157.387 70.5994 158.12C69.2761 158.785 66.3999 158.814 65.2061 157.956Z" fill="#2b3033" fill-opacity="0.917647"/>
<path d="M223.396 79.4873C224.671 79.8835 225.854 80.2585 227.112 80.7153C226.316 80.6982 223.569 80.6868 222.954 80.4316L223.485 80.2188L221.98 79.6445C222.489 79.6421 222.899 79.5642 223.396 79.4873Z" fill="#FED058" fill-opacity="0.054902"/>
<path d="M226.613 84.8455C227.739 84.4434 229.249 84.4209 230.469 84.3381L226.969 85.7166L226.613 84.8455Z" fill="#FED058" fill-opacity="0.0431373"/>
</svg>
