<svg width="40" height="40" viewBox="0 0 40 40" fill="none" xmlns="http://www.w3.org/2000/svg">
<rect width="40" height="40" rx="10" fill="#FFF5E5"/>
<path d="M20 30C25.5228 30 30 25.5228 30 20C30 14.4771 25.5228 10 20 10C14.4771 10 10 14.4771 10 20C10 21.5997 10.3756 23.1116 11.0435 24.4525C11.2209 24.8088 11.28 25.2161 11.1771 25.6006L10.5815 27.8267C10.323 28.793 11.207 29.677 12.1733 29.4185L14.3994 28.8229C14.7839 28.72 15.1912 28.7791 15.5475 28.9565C16.8884 29.6244 18.4003 30 20 30Z" fill="#F5A623"/>
<path d="M23.5303 17.4697C23.8232 17.7626 23.8232 18.2374 23.5303 18.5303L19.5303 22.5303C19.2417 22.819 18.7751 22.8238 18.4806 22.541L16.4806 20.621C16.1818 20.3342 16.1721 19.8594 16.459 19.5606C16.7458 19.2618 17.2206 19.2521 17.5194 19.539L18.9893 20.9501L22.4697 17.4697C22.7626 17.1768 23.2374 17.1768 23.5303 17.4697Z" fill="white"/>
</svg>
