<svg width="40" height="40" viewBox="0 0 40 40" fill="none" xmlns="http://www.w3.org/2000/svg">
<rect width="40" height="40" rx="10" fill="#E2FFE3"/>
<path d="M22.5562 23.5477L22.1007 24.0272C22.1007 24.0272 21.0181 25.167 18.0631 22.0559C15.1081 18.9448 16.1907 17.805 16.1907 17.805L16.4775 17.5031C17.1841 16.7592 17.2507 15.5649 16.6342 14.6931L15.3733 12.9096C14.6103 11.8305 13.136 11.6879 12.2615 12.6086L10.6918 14.2611C10.2582 14.7176 9.96765 15.3094 10.0029 15.9659C10.093 17.6454 10.8107 21.259 14.8154 25.4752C19.0621 29.9462 23.0468 30.1239 24.6763 29.9631C25.1917 29.9122 25.6399 29.6343 26.0011 29.254L27.4217 27.7584C28.3806 26.7489 28.1102 25.0182 26.8833 24.312L24.9728 23.2123C24.1672 22.7486 23.1858 22.8848 22.5562 23.5477Z" fill="#4CAF50"/>
<path d="M25 20C27.7614 20 30 17.7614 30 15C30 12.2386 27.7614 10 25 10C22.2386 10 20 12.2386 20 15C20 15.7998 20.1878 16.5558 20.5217 17.2262C20.6105 17.4044 20.64 17.608 20.5886 17.8003L20.2908 18.9133C20.1615 19.3965 20.6035 19.8385 21.0867 19.7092L22.1997 19.4114C22.392 19.36 22.5956 19.3895 22.7738 19.4783C23.4442 19.8122 24.2002 20 25 20Z" fill="#A1FFA5"/>
</svg>
