<svg width="250" height="250" viewBox="0 0 250 250" fill="none" xmlns="http://www.w3.org/2000/svg">
<path d="M96.3144 62.312C96.1959 60.1846 95.4418 54.1284 98.2787 53.7461C100.575 53.4368 102.696 59.6567 103.841 60.7612C109.492 58.9814 117.076 36.825 119.313 31.0173C120.572 27.7498 121.93 21.8453 123.555 18.9786L123.977 18.8877C124.534 19.6795 124.83 26.8274 125.059 28.0039C125.657 31.0647 128.423 46.9939 132.54 46.5776C139.712 45.8525 151.398 32.9597 156.081 27.6174C157.351 26.1677 158.278 23.4378 159.573 22.8173L159.292 22.8891L159.622 22.8716C159.708 23.6221 158.92 25.0842 158.614 26.0708C157.441 29.8525 154.157 40.4905 156.383 43.856C157.226 44.4424 157.821 44.5869 158.799 44.9082C163.493 43.8401 167.922 41.8457 172.021 39.2522C173.126 38.5527 174.268 37.0874 175.609 37.2947C175.004 38.8611 167.936 42.8328 166.054 43.6826C163.735 44.729 161.331 45.179 159.013 45.9585C157.355 45.5176 156.391 45.1921 154.893 44.2383C153.349 38.158 155.684 33.9597 156.767 28.0259C154.847 29.9761 153.81 31.717 152.041 33.6914C146.875 39.4565 140.545 45.5779 133.224 48.3359C131.267 47.905 129.569 47.2488 128.5 45.2725C125.986 40.6267 124.8 34.0977 123.688 28.9238C123.396 27.5637 123.35 25.322 122.902 24.3017L122.662 24.35C121.77 26.176 121.538 28.0269 120.865 29.5627C116.949 38.4973 112.062 56.8176 103.598 61.8977C105.058 67.0745 105.756 72.9087 105.778 78.3037C105.782 79.2119 105.515 80.3379 105.916 81.1445L106.225 81.1074C107.523 78.5078 107.282 74.1628 108.087 71.5415C109.077 68.3167 110.44 54.614 113.142 53.1538C116.247 52.6399 118.042 56.7131 118.082 58.9741C118.138 62.1968 118.824 71.2922 117.672 73.7944C117.382 74.6138 116.764 77.9351 116.62 78.8311L116.41 78.8931L116.519 79.323C116.446 77.7605 116.473 76.1311 116.389 74.6104C116.798 69.7827 118.167 58.5122 114.975 54.6943C114.739 54.4116 114.09 53.7412 113.794 53.4509C113.094 54.782 112.625 55.623 112.174 57.0537C110.75 61.5752 108.188 83.7815 105.442 85.7134L105.044 85.675C104.548 84.2778 104.769 76.9028 104.561 74.8147C104.219 71.3738 102.112 56.0195 98.819 55.1367C96.7902 56.3455 97.6645 61.177 97.6823 63.353C99.7924 62.8 100.756 62.6487 103.009 62.738C101.388 63.4822 98.4015 63.9375 97.9706 64.4548C97.4557 66.8533 97.9032 69.0496 97.7687 71.2937C97.401 77.4319 97.4135 82.363 99.1471 88.3545C99.9452 90.6514 101.534 92.7815 102.727 94.8648C105.696 100.048 107.846 105.994 105.429 111.839C104.641 113.746 101.798 118.389 99.4682 118.391L98.9874 118.054C99.1071 117.211 101.705 115.76 102.478 114.871C106.626 110.097 105.293 99.3044 101.3 94.5442C96.1032 88.3472 98.1374 81.6208 93.6393 75.3628C92.3468 73.5645 89.4145 71.1514 86.9608 71.8037C83.3124 76.9858 97.7243 91.4187 87.8578 105.665C87.5626 106.088 87.256 106.504 86.9376 106.91C85.4247 107.46 80.0326 109.008 79.4887 110.283C77.8415 114.144 79.5578 120.755 80.829 124.598C81.786 127.492 84.7663 133.252 88.5575 131.621C91.1835 130.492 92.9315 127.915 95.7045 127.067C98.7709 126.054 101.657 126.127 104.752 125.615C111.845 124.444 117.05 118.583 119.693 112.201C120.134 111.133 121.594 106.942 121.919 106.399C122.229 106.537 122.511 106.626 122.762 106.838C122.023 112.38 117.493 119.694 112.99 123.097C109.329 125.864 105.925 127.205 101.3 127.169C97.2177 127.137 94.9189 128.474 91.7467 130.873C92.0363 133.696 92.0385 135.777 90.0575 138.102C87.9955 140.522 85.2016 142.199 82.6522 144.029C81.5648 144.81 78.5263 146.502 78.7873 148.03C79.0036 149.602 79.7252 151.298 79.9665 152.84C81.2382 160.968 83.7729 168.917 85.1103 177.043C85.5597 179.772 87.286 184.369 86.0104 186.805C81.8559 190.58 56.2616 195.841 49.6847 197.008C49.0285 196.465 47.7531 196.566 46.8427 196.542C51.2833 195.847 82.7555 188.752 84.8126 186.364C85.4123 185.668 85.1444 183.805 85.0375 182.932C84.662 179.868 83.8935 176.825 83.2419 173.809C81.3529 165.067 78.9066 156.272 77.6969 147.41C76.8522 148.081 75.8993 149 75.0888 149.74C75.3654 154.296 76.5939 159.48 77.5355 163.96C78.1745 167.001 78.2389 169.514 79.3561 172.504C78.3383 174.471 77.2714 175.168 75.3258 176.112C68.1181 179.606 44.8554 185.258 36.8463 184.964C35.817 184.926 34.8949 184.641 33.9293 184.307C31.6774 177.372 30.0158 171.055 28.0937 164.09C24.5277 151.521 21.3118 138.856 18.4493 126.109C18.05 124.279 17.5793 121.588 17.2627 119.71C16.4493 114.883 13.9963 104.975 13.9529 100.485C15.8611 98.2756 22.3242 96.4443 25.0985 95.7341C32.1649 93.9253 53.6559 86.834 59.3917 90.1314C59.9972 91.6687 60.7926 94.5974 61.2958 96.2815C62.3576 99.8364 63.9496 103.984 64.5719 107.574C65.435 107.473 66.296 107.674 66.9762 107.183C67.8563 105.545 63.1698 88.3894 61.7345 86.656C58.0522 84.6509 30.1471 92.5447 24.3705 93.7361L23.9717 92.5508C25.4911 92.0273 29.7323 91.2629 31.5919 90.773C37.2951 89.27 42.9645 87.8977 48.7582 86.8103C54.3053 85.769 56.4552 84.6733 62.1581 85.0701C62.5023 85.5769 63.559 87.1338 63.6884 87.6497C64.7152 91.7397 68.63 103.065 68.7548 106.669C74.3686 104.962 77.0194 104.219 82.2638 107.486C83.8781 107.035 85.2829 106.533 86.6732 105.591C87.674 103.68 89.3297 100.629 89.8646 98.5735C91.3192 92.3271 88.1674 85.7644 86.5939 79.8179C86.236 78.4653 84.047 72.3042 85.5255 71.4492C89.828 68.9612 93.9237 73.8525 96.3966 76.6931L96.329 63.9959C96.3161 63.3611 96.5695 62.9495 96.3144 62.312ZM71.5568 176.305C73.6132 175.704 76.141 174.375 78.1481 173.454C77.3712 168.382 75.8676 163.145 75.1525 157.992C74.7699 155.235 73.9752 153.329 73.9608 150.385C71.1198 152.165 68.2091 154.063 65.4403 155.955C63.1454 157.523 61.4437 159.834 58.7851 160.932C57.0473 161.65 55.6386 161.673 53.8073 161.238C48.3644 159.945 44.361 154.869 41.5961 150.339C36.2765 141.448 34.6627 130.823 37.1029 120.754C37.8952 117.498 39.0587 114.047 42.0397 112.003C44.5409 110.288 47.9235 112.137 50.1693 111.809C53.279 111.354 60.6666 109.545 63.4149 108.409C62.3007 102.937 60.4711 96.9206 58.5365 91.6946C57.9162 90.019 55.7628 90.2663 54.3939 90.374C51.0263 91.1101 47.5551 91.2783 44.1667 91.949C40.2714 92.7202 16.8363 98.6145 15.7159 100.575C14.6903 102.371 16.6292 109.685 17.052 111.943C17.5411 114.554 17.8468 117.199 18.3799 119.802C21.247 133.801 24.9081 147.58 28.6251 161.369L32.8346 176.494C33.3129 178.161 33.6295 179.909 34.1977 181.545C34.3908 182.1 34.6347 182.917 35.2091 183.187C40.0058 185.439 65.9774 178.293 71.5568 176.305ZM51.8546 159.126C53.2121 159.816 54.4618 160.58 56.0246 160.067C60.8185 158.494 88.4723 139.693 90.6225 135.27C91.0543 134.382 91.088 133.146 90.9179 132.186L90.5751 131.861C89.508 131.973 89.2975 132.556 88.4989 132.841C87.0885 133.324 85.0573 132.838 83.9672 131.841C80.3327 128.515 78.3546 122.245 77.9394 117.458C77.6781 114.45 76.9232 109.83 79.7697 108.076L79.8388 107.602C78.8219 106.34 75.0761 106.648 73.549 106.76C69.0275 107.489 45.1422 115.61 43.0529 114.634C43.6315 113.461 46.0182 113.454 47.3366 113.156L47.4904 112.808C46.6232 111.803 43.2104 112.382 42.3703 113.155C38.0414 117.136 37.4684 123.5 37.3007 129.02C37.0109 138.792 40.4123 148.523 47.0797 155.709C48.1769 156.892 50.3156 158.634 51.8546 159.126Z" fill="#2B3033"/>
<path d="M30.6028 120.342L31.2195 120.934C28.3042 134.154 32.0671 149.255 40.467 159.863C46.561 167.559 56.073 170.48 64.0449 163.474L64.4062 163.522C65.0503 165.098 60.3921 167.657 59.1379 168.062C45.3706 172.433 35.6931 157.552 31.8821 146.491C29.3723 139.207 27.6198 127.636 30.6028 120.342Z" fill="#2B3033"/>
<path d="M39.084 171.284C47.7898 177.719 60.0383 179.073 67.4343 169.807C71.1606 165.138 70.4006 159.604 72.1287 154.745C73.2017 166.43 67.4006 176.393 55.0762 177.77C50.0156 178.335 43.3086 175.756 39.4539 172.562C39.3672 172.49 39.281 172.417 39.1953 172.344L39.084 171.284Z" fill="#2B3033"/>
<path d="M36.8875 98.0015C38.3074 97.8523 39.4771 97.896 40.8973 97.9224C36.3363 99.583 32.8829 99.8506 29.2659 103.446C24.7154 107.97 22.4687 114.822 22.4203 121.137C22.3967 121.837 22.3333 121.977 22.0948 122.641C21.9534 122.47 21.917 122.5 21.8876 122.278C20.5858 112.488 26.2164 99.7959 36.8875 98.0015Z" fill="#2B3033"/>
<path d="M40.6418 102.865L40.8374 102.836C46.2861 102.039 48.6323 103.825 52.9563 106.863C53.6306 107.336 54.1467 108.002 54.2495 108.842L53.9551 109.097C53.3376 108.915 53.0496 108.457 52.5701 108.036C50.7444 106.435 48.595 104.996 46.3254 104.112C44.4128 103.427 43.1807 103.483 41.189 103.475C36.0483 106.135 36.7515 107.404 33.3235 110.959L33.1506 111.136L33.29 110.823C34.8735 107.302 36.8965 104.292 40.6418 102.865Z" fill="#2B3033"/>
<path d="M39.1953 172.344C38.4187 171.79 37.2852 171.051 37.1987 170.018C37.8801 170.068 38.522 170.788 39.084 171.284L39.1953 172.344Z" fill="#2B3033"/>
<path d="M30.6028 120.342C30.9717 119.586 31.2429 118.803 31.895 118.326C32.0696 119.058 31.5154 120.167 31.2195 120.934L30.6028 120.342Z" fill="#2B3033"/>
<path d="M181.532 118.594C182.482 115.74 183.635 109.519 186.424 108.168C190.986 105.958 224.844 115.802 231.335 118.187C232.342 118.557 233.661 118.947 234.305 119.861C235.271 123.356 232.424 137.942 231.535 142.243C227.666 160.947 222.798 179.492 217.493 197.833C216.102 202.616 214.978 208.549 212.779 213.069C212.446 213.753 211.803 214.343 211.085 214.407C201.562 215.257 170.927 207.799 163.854 203.297C163.595 203.132 163.339 202.963 163.086 202.791C162.882 196.536 163.955 194.552 164.924 188.766C166.042 182.085 167.541 176.065 168.997 169.514C168.226 168.269 167.214 166.724 166.588 165.442C166.613 165.353 166.973 164.914 167.057 164.807C169.755 166.953 174.341 175.417 177.186 178.287C178.129 179.238 181.776 184.332 181.635 185.468C180.094 184.795 178.052 181.161 177.278 179.76C177.332 180.783 177.507 182.085 177.73 183.076C178.931 188.529 185.306 190.523 190.182 189.119C202.196 185.612 209.252 174.76 213.323 163.598C216.104 155.975 217.756 151.475 215.692 143.459C212.929 141.912 209.744 139.503 207.057 137.64C202.798 134.734 198.558 131.8 194.337 128.84C190.624 126.206 178.02 115.937 174.014 118.609C173.641 118.248 173.744 118.461 173.693 117.949C174.441 117.711 174.605 117.626 175.066 116.987L176.33 117.286C177.063 117.63 177.255 117.511 177.876 117.208C178.533 117.986 180.484 118.328 181.532 118.594ZM182.631 119.3C189.576 123.383 196.429 129.051 203.229 133.425C205.714 135.023 208.273 133.646 211.91 136.499C214.41 138.453 216.193 141.181 216.98 144.256C219.558 154.045 214.11 166.096 209.46 174.585C206.068 180.779 198.298 188.176 191.334 189.945C183.284 191.99 175.41 188.678 176.283 179.101C174.764 177.079 171.906 172.883 170.368 171.244L170.083 171.274C168.983 173.282 163.908 197.631 164.348 201.526C164.426 202.222 165.191 202.824 165.892 203.163C168.911 204.62 172.257 205.596 175.47 206.566C184.627 209.404 194.001 211.49 203.498 212.803C205.417 213.066 211.347 214.268 212.081 212.033C215.43 201.838 217.754 191.161 220.818 180.876C222.254 176.056 223.517 168.501 225.455 164.096C225.405 164.237 226.464 159.063 226.449 159.391C227.158 157.555 227.344 155.739 227.72 153.824C229.45 145.006 231.835 136.307 232.87 127.361C233.098 125.388 233.585 123.166 233.708 121.212C233.341 120.834 232.338 119.807 231.867 119.645C218.96 115.215 205.67 111.541 192.148 109.554C190.98 109.383 189.681 109.365 188.552 109.348C187.688 109.329 186.824 109.332 185.96 109.358C184.785 112.65 183.676 115.965 182.631 119.3ZM214.124 140.725C212.824 138.427 209.535 135.652 206.742 135.723C207.599 136.639 213.058 140.619 214.124 140.725Z" fill="#2B3033"/>
<path d="M212.5 194.436L212.953 194.732C213.294 196.346 210.976 199.003 209.888 200.156C205.097 205.248 198.467 208.21 191.478 208.383C186.532 208.515 179.615 206.74 175.946 203.257C175.276 202.71 175.327 202.929 175.235 202.28C176.104 202.198 178.181 203.949 179.366 204.448C186.48 207.439 192.046 208.016 199.318 205.488C204.382 203.727 210.236 199.04 212.5 194.436Z" fill="#2B3033"/>
<path d="M170.736 181.333C171.74 185.089 171.249 186.457 173.539 190.225C176.666 195.372 181.012 198.597 187.151 199.106C192.648 199.561 195.471 197.872 200.099 195.239L200.513 195.358L200.528 195.854C191.558 204.939 176.247 200.155 171.685 188.968C170.703 186.562 169.762 183.9 170.736 181.333Z" fill="#2B3033"/>
<path d="M194.781 119.48C205.758 113.175 219.312 112.401 226.549 123.953C227.019 124.703 227.297 126.339 227.217 127.221L226.941 127.394C225.844 126.8 224.793 123.383 223.826 122.173C216.912 113.512 202.855 114.849 194.657 120.688C194.461 120.311 194.651 119.995 194.781 119.48Z" fill="#2B3033"/>
<path d="M201.66 127.423C207.005 125.547 209.991 125.026 215.426 127.353C218.376 128.615 224.221 134.547 222.844 137.647L222.509 137.718C221.688 137.117 221.291 135.05 220.694 134.037C216.338 126.648 209.757 125.77 202.19 127.999L201.66 127.423Z" fill="#2B3033"/>
<path d="M194.657 120.688C194.227 121.361 193.816 122.187 193.113 122.511L193 122.18C193.237 121.1 194.051 120.326 194.781 119.48C194.651 119.995 194.461 120.311 194.657 120.688Z" fill="#2B3033"/>
<path d="M202.19 127.999C201.468 128.526 200.846 129.075 199.978 129.263L199.772 129.046C200.28 128.241 200.864 127.944 201.66 127.423L202.19 127.999Z" fill="#2B3033"/>
<path d="M226.566 149.942L227.038 150.314C227.076 151.06 227.072 151.645 227.053 152.391C226.764 154.897 226.305 156.657 225.955 159.019C225.701 160.492 225.049 161.805 224.971 163.15C224.264 166.342 221.358 172.179 220.046 175.427C218.85 178.388 207.975 195.017 205.277 194.272C205.266 193.8 205.4 193.567 205.729 193.213C214.853 183.431 221.771 171.917 224.959 158.849C225.645 156.037 225.948 152.855 226.566 149.942Z" fill="#2B3033"/>
<path d="M227.175 143.29C227.417 145.409 227.696 150.403 227.053 152.391C227.072 151.645 227.076 151.06 227.039 150.314L226.566 149.942C226.594 148.142 226.882 145.106 227.175 143.29Z" fill="#2B3033"/>
<path d="M225.955 159.019L226.229 159.51L226.448 159.391C226.464 159.063 225.405 164.237 225.455 164.096L224.971 163.15C225.049 161.805 225.701 160.492 225.955 159.019Z" fill="#2B3033"/>
<path d="M184.9 212.669C187.268 212.885 187.691 213.289 189.429 214.759L189.464 214.955C190.089 218.579 189.855 221.094 185.804 221.774C184.79 221.706 184.004 221.648 183.079 221.193C182.064 220.681 181.295 219.788 180.94 218.708C180.57 217.555 180.69 216.3 181.274 215.238C182.123 213.658 183.271 213.146 184.9 212.669ZM181.633 217.637C183.303 220.365 183.313 220.744 186.659 220.735C189.531 218.447 189.175 214.424 185.522 214.162C185.07 214.133 184.615 214.13 184.163 214.155C182.651 214.948 182.315 216.097 181.633 217.637Z" fill="#2B3033"/>
<path d="M57.8818 183.505C60.0881 183.001 62.2844 184.386 62.7805 186.594C63.2768 188.802 61.884 190.993 59.6741 191.482C57.4753 191.967 55.2978 190.583 54.8042 188.386C54.3105 186.189 55.6865 184.007 57.8818 183.505ZM60.0342 190.08C61.4563 189.355 62.0215 187.614 61.2966 186.192C60.5715 184.77 58.8308 184.205 57.4089 184.93C55.987 185.655 55.4223 187.395 56.1472 188.817C56.872 190.239 58.6123 190.804 60.0342 190.08Z" fill="#2B3033"/>
<path d="M181.246 103.689C182.783 103.171 184.288 102.989 185.897 103.306C201.242 106.321 216.588 109.897 231.655 114.096C235.346 115.125 240.483 116.464 243.428 118.88C244.702 124.645 242.805 130.526 241.576 136.181L237.835 152.808L228.356 192.503C226.309 200.803 224.516 209.283 222.035 217.439C220.834 221.386 219.942 230.687 214.889 230.933C209.039 231.219 201.608 229.438 195.818 228.147C196.052 227.785 196.358 227.634 196.72 227.394C199.755 227.826 210.923 230.299 212.669 229.319C214.562 226.632 216.593 216.387 217.605 212.587C221.436 198.224 224.988 183.789 228.259 169.288C230.103 161.335 239.772 123.108 239.101 118.057C236.775 116.017 218.765 112.016 214.613 110.964C205.136 108.563 194.873 106.145 185.177 104.508C184.269 104.355 182.512 104.391 181.86 105.302C180.087 108.477 179.066 113.818 177.876 117.208C177.255 117.511 177.063 117.63 176.33 117.286C177.82 115.85 178.742 109.928 179.552 107.718C180.132 106.139 180.474 105.285 181.246 103.689Z" fill="#2B3033"/>
<path d="M23.9718 92.5508L24.3706 93.7361C21.8167 94.2886 11.517 96.8213 10.3604 98.5742C9.07533 100.522 30.479 187.13 33.1667 195.854C33.3838 196.558 33.5786 197.544 34.1274 198.049C36.4175 198.901 43.6665 196.902 46.8428 196.541C47.7532 196.566 49.0286 196.465 49.6848 197.008C45.583 197.742 32.468 201.498 29.4529 198.452C27.5632 196.543 25.0644 185.166 24.2522 181.988L17.0652 152.694C14.2469 140.807 11.2603 128.578 8.66198 116.673C3.60966 93.5259 4.67221 99.218 23.9718 92.5508Z" fill="#2B3033"/>
<path d="M116.389 74.6104C116.473 76.1311 116.446 77.7605 116.519 79.323L116.41 78.8931L116.62 78.8311C116.764 77.9351 117.382 74.6138 117.672 73.7944L117.875 74.0151C117.901 75.2368 117.918 75.627 118.535 76.6943C118.084 80.9441 116.67 83.9253 116.017 87.8835C118.247 88.1099 120.201 88.7461 122.087 89.9956L122.908 90.2622C123.838 91.3845 124.368 91.7031 125.759 92.1924L125.814 92.7661L124.906 93.4858C122.321 91.3516 119.546 89.2515 116.076 89.2209C113.136 91.3469 117.615 99.4189 119.339 101.659C122.551 105.833 126.807 107.144 130.379 110.761C133.24 113.652 133.38 117.092 135.293 120.121C141.171 129.427 151.102 133.585 160.309 125.817C164.304 122.446 166.105 119.104 167.435 114.25L167.668 114.184C168.051 113.448 168.386 110.821 168.253 109.905L168.83 110.077C169.937 112.324 170.829 114.238 172.218 116.336L175.066 116.987C174.605 117.626 174.441 117.711 173.693 117.949C173.744 118.461 173.641 118.248 174.013 118.609C174.721 120.251 173.904 123.376 173.252 124.974C170.801 130.976 164.907 135.689 158.413 136.374C157.039 136.518 154.482 135.755 153.717 136.602C153.486 137.506 153.596 137.926 153.605 138.797C153.715 149.962 161.459 155.893 167.057 164.807C166.973 164.914 166.613 165.353 166.588 165.442L166.254 165.555L166.141 164.621C165.686 164.392 165.556 164.293 165.147 163.985C161.226 159.365 156.614 152.898 153.993 147.372C152.769 144.792 152.651 135.409 151.243 134.256C147.73 131.379 141.803 129.133 138.418 125.914C131 118.859 133.468 111.317 122.762 106.838C122.511 106.626 122.229 106.537 121.919 106.399C121.804 105.994 119.943 104.017 119.424 103.49C117.292 101.902 112.876 92.989 113.834 90.4973C115.838 85.2842 115.938 80.5349 116.389 74.6104Z" fill="#2B3033"/>
<path d="M148.753 61.0935L149.057 61.6267C149.618 60.9058 149.957 59.5723 150.458 58.7141C152.419 55.3552 157.381 46.7605 162.27 49.3076C164.213 50.3193 161.245 56.5183 160.599 57.8079C162.63 56.0115 167.121 51.1082 170.053 53.1909C173.153 57.4175 163.041 71.0408 163.842 73.3218C164.58 73.0369 166.47 69.6167 167.226 68.8457C169.026 67.0117 172.903 64.0632 175.531 64.6846C177.684 66.5288 173.865 71.0244 172.774 72.9229C167.724 81.7065 165.337 91.7471 165.937 101.859C166.047 103.727 166.567 108.752 167.561 110.139C167.959 110.128 167.934 110.141 168.253 109.905C168.386 110.821 168.051 113.448 167.667 114.184L167.434 114.25C167.268 112.675 166.248 111.221 165.847 109.694C165.008 106.503 165.036 103.095 164.943 99.8889C164.57 90.7766 166.359 82.6052 170.612 74.5247C171.493 72.8518 175.12 67.4915 174.683 66.053L174.096 65.9209C168.723 67.4866 166.673 71.5874 163.649 75.7732C163.196 74.6841 163.336 74.8721 163.188 73.8032L162.463 74.7305L162.017 74.7166C163.394 68.5342 169.145 60.5151 169.872 54.5002C169.395 53.3809 167.794 53.677 166.927 54.1348C158.447 58.6323 156.813 70.1006 154.681 78.5493C154.313 80.0061 154.235 85.5195 153.075 85.9353C152.046 84.4973 155.486 69.021 156.506 66.7952C157.556 64.5015 158.282 61.625 159.034 59.0989C159.642 57.0513 162.57 52.1123 160.933 50.199C156.831 48.8167 150.703 60.2612 149.593 63.4375C149.241 63.0498 149.206 63.5034 148.536 62.4319C148.473 61.7781 148.497 61.7002 148.753 61.0935Z" fill="#2B3033"/>
<path d="M126.303 71.198C127.159 71.2913 127.926 71.2947 128.641 71.7642C131.049 77.0415 127.142 87.9631 127.095 93.0466C127.086 94.05 135.929 102.924 137.54 102.668C138.082 101.417 137.195 94.8572 136.987 92.998C136.271 86.5935 138.196 49.8591 147.478 51.2866C148.105 51.3831 148.66 51.7449 149.001 52.2795C149.908 53.6841 149.462 56.3445 149.162 57.9333C149.101 57.5771 149.037 57.2214 148.971 56.8662C148.767 55.8284 148.937 56.1055 148.167 55.5825C148.199 54.2395 148.477 52.5278 146.778 52.3906C144.37 53.4509 142.45 57.9885 141.63 60.4121C137.216 73.4597 138.16 88.2979 138.724 101.867C138.757 102.659 138.626 103.057 138.029 103.478C133.795 103.95 128.786 95.967 124.906 93.4858L125.814 92.7661L125.759 92.1924C127.571 87.0417 128.539 76.1799 127.464 70.9639C125.589 75.8586 126.019 86.3498 122.908 90.2622L122.087 89.9956C124.287 87.4568 126.873 62.3518 123.206 59.8733L122.659 60.1128C120.651 62.7331 120.624 67.9373 119.935 71.1565C119.524 73.0737 119.054 74.8044 118.535 76.6943C117.917 75.627 117.901 75.2368 117.875 74.0151C119.558 70.3906 119.294 59.4631 122.872 58.3799C125.098 58.4224 125.031 59.989 125.464 61.7261C126.249 64.8794 126.524 67.9502 126.303 71.198Z" fill="#2B3033"/>
<path d="M165.147 163.985C165.556 164.293 165.686 164.392 166.141 164.621L166.254 165.555C165.455 167.674 165.062 170.445 164.59 172.709L162.074 184.385L157.752 203.971C157.146 206.796 155.209 213.142 155.899 215.797C158.014 218.684 180.707 223.545 185.393 224.897C187.466 225.496 194.576 226.458 196.72 227.394C196.358 227.634 196.052 227.785 195.818 228.147C189.87 227.277 158.337 220.297 154.729 216.493C153.616 214.027 156.885 202.112 157.619 198.849L163.319 172.829C163.815 170.569 165.088 166.087 165.145 164.094L165.147 163.985Z" fill="#2B3033"/>
<path d="M104.149 138.761C106.659 138.592 108.992 138.539 111.129 140.1C115.879 143.569 117.605 158.427 118.502 164.122C122.483 158.164 126.746 149.128 134.656 147.71C136.088 147.453 138.27 147.712 138.351 149.544C137.892 149.789 135.669 149.221 134.809 149.261C131.379 149.42 129.453 151.807 127.29 154.054C125.859 155.785 124.471 157.43 123.197 159.277C121.911 161.143 119.364 166.581 117.882 167.818C117.347 167.453 117.187 167.192 117.055 166.452C116.346 163.48 116.506 160.19 115.824 157.241C114.781 152.734 113.971 143.297 109.674 140.742C106.343 138.761 101.219 140.589 98.4895 142.751C97.8618 143.248 96.5354 144.469 95.8391 144.674L95.866 144.125C97.2624 142.178 101.742 139.32 104.149 138.761Z" fill="#2B3033"/>
<path d="M147.698 60.0354C147.845 62.0535 147.521 66.9226 148.168 68.261C147.075 71.7173 148.176 85.2761 147.518 86.2319L147.197 86.1638C146.028 83.4978 147.074 63.7625 147.698 60.0354Z" fill="#2B3033"/>
<path d="M147.698 60.0354C147.797 58.5457 147.954 57.0601 148.167 55.5825C148.937 56.1055 148.767 55.8284 148.971 56.8662C149.037 57.2214 149.101 57.5771 149.162 57.9333L148.753 61.0935C148.497 61.7002 148.473 61.7781 148.537 62.4319C149.206 63.5034 149.241 63.0498 149.593 63.4375C149.159 64.9985 148.71 66.7524 148.168 68.261C147.521 66.9226 147.845 62.0535 147.698 60.0354Z" fill="#2B3033"/>
<path d="M162.097 79.3208C161.106 81.0649 159.732 85.6301 158.453 86.5234C158.08 84.7976 160.033 79.7134 160.685 77.9099L161.01 78.4605L161.733 78.5879L162.097 79.3208Z" fill="#2B3033"/>
<path d="M162.017 74.7166L162.463 74.7305L163.188 73.8032C163.336 74.8721 163.196 74.6841 163.649 75.7732C163.081 76.9778 162.605 78.095 162.097 79.3208L161.733 78.5879L161.01 78.4604L160.685 77.9099C161.067 76.6755 161.367 75.8408 162.017 74.7166Z" fill="#2B3033"/>
<path d="M88.5518 59.5554C90.4211 60.6982 93.5955 62.6719 95.7051 62.8479C96.146 62.5901 96.1077 62.699 96.3145 62.312C96.5696 62.9495 96.3162 63.3611 96.3291 63.9959C95.9656 63.7783 94.7661 63.5723 94.0896 63.2798C91.8975 62.332 90.145 61.3062 88.1221 60.0691L88.5518 59.5554Z" fill="#2B3033"/>
<path d="M88.1221 60.0691C87.5708 59.7207 86.9158 59.2473 86.8772 58.5874C87.7117 58.7185 87.7871 58.968 88.5518 59.5554L88.1221 60.0691Z" fill="#2B3033"/>
</svg>
