<svg width="40" height="40" viewBox="0 0 40 40" fill="none" xmlns="http://www.w3.org/2000/svg">
<rect x="0.5" y="0.5" width="39" height="39" rx="5.5" fill="#F9F9F9"/>
<rect x="0.5" y="0.5" width="39" height="39" rx="5.5" stroke="#EEEEEE"/>
<path d="M28.3336 20C28.3336 20.0789 28.3112 20.1562 28.269 20.2229C28.2268 20.2896 28.1665 20.3429 28.0951 20.3767L13.0951 27.46C13.0202 27.4963 12.9361 27.5093 12.8537 27.4971C12.7713 27.485 12.6945 27.4484 12.6332 27.3921C12.5719 27.3357 12.529 27.2622 12.51 27.1812C12.491 27.1001 12.4969 27.0152 12.5268 26.9375L14.8951 20.5817C15.0348 20.2065 15.0348 19.7935 14.8951 19.4183L12.5259 13.0625C12.4959 12.9847 12.49 12.8996 12.5089 12.8184C12.5279 12.7372 12.571 12.6636 12.6324 12.6072C12.6938 12.5508 12.7708 12.5142 12.8534 12.5022C12.9359 12.4902 13.0202 12.5034 13.0951 12.54L28.0951 19.6233C28.1665 19.6571 28.2268 19.7104 28.269 19.7771C28.3112 19.8438 28.3336 19.9211 28.3336 20ZM28.3336 20H15.0001" stroke="#B8C0C4" stroke-width="1.5" stroke-linecap="round" stroke-linejoin="round"/>
</svg>
