<svg width="435" height="381" viewBox="0 0 435 381" fill="none" xmlns="http://www.w3.org/2000/svg">
<path d="M267.75 78.9821C297.6 90.5501 322.289 109.046 335.24 138.969C341.384 153.166 347.935 168.376 333.49 179.261C382.937 195.795 403.616 241.847 394.121 291.41C362.004 296.731 343.969 322.273 349.302 354.28C349.545 355.791 349.842 357.292 350.193 358.781C308.581 386.706 253.707 388.875 213.831 356.274C172.994 384.588 119.985 384.124 81.8039 351.397L82.0529 350.822C87.4249 338.352 87.5929 324.253 82.5199 311.659C76.7859 297.453 66.9949 289.386 53.2889 283.525C51.5739 271.019 51.9499 258.314 54.4009 245.931C60.2179 216.974 75.8559 193.978 100.372 177.703C113.644 133.681 136.635 100.084 180.334 81.8571C184.842 85.0631 190.21 88.159 195.736 84.64C219.363 98.643 247.314 99.3731 267.75 78.9821ZM324.088 179.27L323.803 179.063C319.704 176.04 316.919 172.078 313.762 168.152C265.666 108.345 169.342 113.82 124.847 175.224C107.38 199.329 98.2969 229.355 102.781 259.318C106.238 283.584 119.265 305.457 138.955 320.055C161.936 336.856 188.972 339.697 216.418 335.639C223.084 334.016 230.862 335.16 237.691 336.016C256.733 338.403 274.178 336.314 291.713 328.575C328.737 312.237 346.583 272.073 342.925 233.063C341.018 212.73 333.914 196.723 324.088 179.27Z" fill="#3ECA7F"/>
<path d="M268.211 185.018C269.657 184.97 271.087 184.956 272.53 185.108C277.78 185.711 282.569 188.396 285.822 192.561C288.736 196.277 289.975 201.037 289.243 205.702C288.932 207.784 287.399 212.579 285.964 214.171C270.161 231.252 253.837 248.345 237.464 264.852C205.334 297.245 204.994 305.716 173.057 269.532C165.721 261.939 153.246 251.498 153.243 240.992C153.288 236.113 155.308 231.461 158.841 228.097C175.663 211.814 191.911 236.672 202.842 247.902C215.949 234.753 254.404 189.994 268.211 185.018Z" fill="#3ECA7F"/>
<path d="M333.49 179.261C382.937 195.795 403.616 241.847 394.121 291.41C362.004 296.731 343.969 322.273 349.302 354.28C349.545 355.791 349.842 357.292 350.193 358.781C308.581 386.706 253.707 388.875 213.831 356.274C208.111 349.61 212.022 341.473 216.418 335.639C223.084 334.016 230.862 335.16 237.691 336.016C256.733 338.403 274.178 336.314 291.713 328.575C328.737 312.237 346.583 272.073 342.925 233.063C341.018 212.73 333.914 196.723 324.088 179.27C327.236 179.409 330.365 179.652 333.49 179.261Z" fill="#3ECA7F"/>
<path d="M221.235 0.751072C243.052 -3.50493 264.18 10.7591 268.389 32.5861C272.597 54.4121 258.287 75.5101 236.451 79.6701C214.682 83.8181 193.664 69.5621 189.469 47.8021C185.273 26.0431 199.484 4.99307 221.235 0.751072Z" fill="#3ECA7F"/>
<path d="M393.493 305.44C413.353 302.744 431.648 316.628 434.397 336.48C437.146 356.331 423.313 374.664 403.469 377.468C383.548 380.282 365.129 366.383 362.369 346.455C359.609 326.527 373.558 308.145 393.493 305.44Z" fill="#3ECA7F"/>
<path d="M31.0329 294.531C43.9209 292.682 56.8089 297.903 64.7759 308.201C72.7429 318.499 74.5599 332.285 69.5319 344.295C64.5049 356.305 53.4099 364.687 40.4829 366.239C20.8119 368.601 2.90289 354.698 0.313892 335.056C-2.27411 315.414 11.4219 297.345 31.0329 294.531Z" fill="#3ECA7F"/>
<path d="M180.334 81.8571C183.748 80.5311 186.934 78.7451 190.272 80.0151C192.091 81.5241 193.993 83.0581 195.736 84.6401C190.21 88.1591 184.842 85.0631 180.334 81.8571Z" fill="#3ECA7F"/>
</svg>
