<svg width="231" height="247" viewBox="0 0 231 247" fill="none" xmlns="http://www.w3.org/2000/svg">
<path d="M151.67 37.8785C151.702 37.7155 151.737 37.5526 151.766 37.3883C153.559 27.209 147.715 9.58348 157.382 2.71548C158.627 1.83128 159.905 1.26406 161.421 1.03717C170.208 -0.277438 212.278 -0.438341 220.797 1.1121C223.401 1.58651 225.459 2.16614 227.032 4.46601C232.016 11.752 230.51 51.0527 229.748 61.4458C227.145 65.3793 225.921 66.7496 221.872 69.2083C212.793 69.8835 203.07 69.6449 193.972 69.2028C176.199 86.5045 156.334 105.951 139.209 123.805L194.438 179.441C201.337 179.631 210.153 179.134 215.992 184.993C223.037 192.063 223.16 235.886 216.871 242.237C211.521 247.638 182.492 245.218 174.179 245.333C170.135 245.498 162.08 242.16 159.81 239.201C154.385 232.132 155.294 222.854 154.995 214.422C137.216 195.426 114.54 173.763 95.9672 155.191C106.64 155.473 111.124 153.992 119.258 147.685C118.004 145.429 117.459 144.716 117.161 142.135L118.235 141.824C120.568 141.757 123.301 141.938 124.967 140.171C133.272 131.368 130.684 114.441 123.42 105.98C121.864 104.869 119.854 102.544 118.472 101.059C111.977 94.8899 104.042 93.9122 95.6702 94.0559L151.67 37.8785ZM164.763 69.7824L164.664 84.0561C173.404 78.2428 184.064 69.1795 193.972 69.2028C203.07 69.6449 212.793 69.8835 221.872 69.2083C225.921 66.7496 227.145 65.3793 229.748 61.4458C230.51 51.0527 232.016 11.752 227.032 4.46601C225.459 2.16614 223.401 1.58651 220.797 1.1121C212.278 -0.438341 170.208 -0.277438 161.421 1.03717C159.905 1.26406 158.627 1.83128 157.382 2.71548C147.715 9.58348 153.559 27.209 151.766 37.3883C151.737 37.5526 151.702 37.7155 151.67 37.8785C151.172 52.3426 147.011 66.8741 164.763 69.7824Z" fill="#548B6D"/>
<path d="M151.671 37.8785C151.702 37.7155 151.737 37.5526 151.766 37.3883C153.559 27.209 147.715 9.58348 157.382 2.71548C158.627 1.83128 159.905 1.26406 161.421 1.03717C170.208 -0.277438 212.278 -0.438341 220.797 1.1121C223.402 1.58651 225.459 2.16614 227.032 4.46601C232.016 11.752 230.51 51.0527 229.748 61.4458C227.145 65.3793 225.921 66.7496 221.873 69.2083C212.793 69.8835 203.07 69.6449 193.972 69.2028C184.064 69.1795 173.404 78.2428 164.664 84.0561L164.763 69.7824C147.011 66.8741 151.172 52.3426 151.671 37.8785ZM175.242 38.7242C176.814 38.0689 177.896 36.601 178.056 34.9062C178.217 33.2113 177.429 31.566 176.009 30.6275C174.588 29.6897 172.766 29.6113 171.27 30.424C169.117 31.5949 168.256 34.2482 169.315 36.46C170.373 38.6719 172.979 39.6675 175.242 38.7242ZM210.967 38.4485C213.136 37.184 213.894 34.4146 212.669 32.2226C211.444 30.0307 208.689 29.2242 206.475 30.4096C205.008 31.1954 204.079 32.7122 204.046 34.3768C204.013 36.0413 204.88 37.5945 206.315 38.4382C207.75 39.2825 209.528 39.2859 210.967 38.4485ZM193.112 38.4588C195.241 37.2287 196.015 34.5349 194.864 32.3615C193.713 30.1888 191.049 29.3157 188.836 30.3862C187.33 31.115 186.343 32.6077 186.261 34.2784C186.18 35.9492 187.017 37.5313 188.445 38.4031C189.874 39.2742 191.663 39.2955 193.112 38.4588Z" fill="#AEFFD4"/>
<path d="M194.438 179.441C201.337 179.631 210.153 179.134 215.992 184.993C223.037 192.063 223.16 235.886 216.871 242.237C211.521 247.638 182.492 245.218 174.179 245.333C170.135 245.498 162.08 242.16 159.81 239.201C154.385 232.132 155.294 222.854 154.995 214.422C153.983 170.549 153.34 179.874 194.438 179.441Z" fill="#3ECA7F"/>
<path d="M119.258 147.685C118.004 145.429 117.459 144.716 117.161 142.135L118.235 141.824C121.471 141.79 122.545 141.549 125.042 143.444C129.878 147.113 133.684 151.435 137.97 155.704C142.747 154.864 151.965 155.431 152.058 162.105C152.266 177.051 130.913 181.366 133.031 161.148L119.258 147.685Z" fill="#CCECF7"/>
<path d="M118.472 101.059C122.584 96.778 127.026 92.6024 130.841 88.1292C134.002 84.4212 130.559 80.168 135.162 76.7577C151.103 64.9462 159.399 98.426 137.1 92.7241C132.661 97.0365 127.938 101.816 123.42 105.98C121.864 104.869 119.854 102.544 118.472 101.059Z" fill="#CCECF7"/>
<path d="M53.303 61.6542C49.9253 42.5649 73.6585 42.7113 69.6291 61.9993C76.94 75.3448 84.7768 88.2275 91.8718 101.713C104.964 97.799 118.103 104.107 121.775 117.569C123.61 124.316 122.644 131.519 119.095 137.544C115.975 142.8 110.828 146.538 104.864 147.879C99.0637 149.201 93.8174 148.233 88.3002 146.315C81.4087 156.711 73.8524 167.714 67.4868 178.356C68.1668 182.201 68.8804 185.317 66.4611 188.75C65.0242 190.782 62.7981 192.117 60.3279 192.425C57.6968 192.753 55.0493 191.952 53.0404 190.221C49.627 187.265 49.5149 182.54 50.8583 178.527C48.4204 173.689 33.6639 152.152 29.7259 146.105C4.50564 153.147 -9.95867 123.98 7.99883 107.21C13.7395 101.849 21.6498 102.227 28.9855 103.031C34.3438 91.635 46.3868 72.6619 53.303 61.6542ZM35.5772 106.305C40.4406 110.789 42.6969 114.302 44.6013 120.743C54.7509 120.713 65.2408 120.564 75.3546 120.837C77.7691 112.765 79.0925 110.341 85.4966 104.981C79.2053 93.5609 70.7256 77.0451 63.7647 66.4897C61.7758 65.3738 61.6321 65.8152 59.067 66.0415C51.4976 79.5616 42.8874 92.7984 35.5772 106.305ZM36.4318 142.124C41.9675 153.387 50.9683 163.037 56.3459 174.602C57.4246 174.607 58.5328 174.648 59.595 174.439C62.9789 173.77 78.9791 147.331 82.4571 142.405C77.9691 136.391 77.2995 134.832 75.5099 127.757C65.161 128.398 54.7818 128.414 44.4308 127.805C42.5553 134.775 41.5626 136.75 36.4318 142.124Z" fill="#3ECA7F"/>
<path d="M53.303 61.6542C55.525 63.7478 56.359 64.6746 59.067 66.0415C51.4976 79.5616 42.8874 92.7984 35.5772 106.305C40.4406 110.789 42.6969 114.302 44.6013 120.743C54.7509 120.713 65.2408 120.564 75.3546 120.837C75.3395 123.092 75.2398 125.538 75.5099 127.757C65.161 128.398 54.7818 128.414 44.4308 127.805C42.5553 134.775 41.5626 136.75 36.4318 142.124C41.9675 153.387 50.9683 163.037 56.3459 174.602L50.8583 178.527C48.4204 173.689 33.6639 152.152 29.7259 146.105C4.50564 153.147 -9.95867 123.98 7.99883 107.21C13.7395 101.849 21.6498 102.227 28.9855 103.031C34.3438 91.635 46.3868 72.6619 53.303 61.6542Z" fill="#AEFFD4"/>
<path d="M36.2681 0.656973C45.548 0.192185 84.7375 -1.24824 91.1767 2.74165C93.3058 4.06038 94.0621 5.80196 94.6114 8.14722C95.7231 12.8907 95.8943 50.227 93.9748 53.0804C92.1674 55.766 88.6137 57.4367 85.544 58.1133C83.4698 58.5705 78.6807 58.86 76.9152 57.5763C76.185 57.0448 76.2325 56.1861 76.051 55.3349C73.3842 46.3561 70.3324 44.3195 61.3942 42.2252C51.2859 44.6035 48.7249 47.8274 47.0598 58.0988C40.2412 58.2212 35.3482 59.2292 30.4924 53.6531C28.0174 46.7879 28.7022 15.5797 29.9039 6.63389C30.2429 4.11262 34.0145 1.85607 36.2681 0.656973Z" fill="#3ECA7F"/>
<path d="M27.1093 195.839C33.5223 195.197 41.5894 195.585 48.12 195.805C50.3303 198.142 52.6946 200.954 54.8499 203.393C61.1508 203.619 80.4242 202.044 84.0838 205.179C86.8798 211.519 85.3171 230.99 85.4326 238.684C85.4815 241.916 85.1026 243.414 82.7878 245.527C76.2854 246.504 33.5697 246.64 27.4723 244.794C22.9932 241.537 25.8319 223.069 25.0935 216.855C24.5641 212.399 24.3008 199.7 27.1093 195.839Z" fill="#3ECA7F"/>
<path d="M73.1779 178.08C79.8136 170.272 85.4113 159.407 92.3365 151.84C93.8063 162.499 93.1408 192.251 93.1649 204.126L89.803 204.384C83.454 193.377 63.6333 200.95 59.63 197.664L58.0591 198.055L58.2165 197.732C60.9981 197.021 63.7935 196.364 66.6006 195.761C69.8813 192.711 70.5537 191.912 72.9063 188.103C73.0933 184.949 73.0947 181.283 73.1779 178.08Z" fill="#3ECA7F"/>
<path d="M93.1649 204.126C93.2247 209.343 93.8648 224.737 91.8655 228.399L90.958 228.878C89.3183 224.85 90.56 210.315 89.803 204.384L93.1649 204.126Z" fill="#3ECA7F"/>
</svg>
