<svg width="40" height="40" viewBox="0 0 40 40" fill="none" xmlns="http://www.w3.org/2000/svg">
<rect width="40" height="40" rx="10" fill="#EAF2FF"/>
<path d="M11.5762 20.4846C11.6827 20.3586 11.8003 20.241 11.9279 20.1332C12.7989 19.3975 14.2067 19.3975 17.0223 19.3975H23.9777C26.7933 19.3975 28.2011 19.3975 29.0721 20.1332C29.2 20.2413 29.3179 20.3592 29.4247 20.4857V17.7558C29.4247 16.8469 29.4247 16.0928 29.3394 15.4916C29.2494 14.857 29.0531 14.2946 28.5839 13.8324C28.5074 13.7571 28.4266 13.6855 28.342 13.6181C27.8302 13.2102 27.2167 13.0434 26.5222 12.9661C25.8531 12.8915 25.0102 12.8916 23.9769 12.8916H23.6242C22.6421 12.8916 22.29 12.8859 21.9711 12.8053C21.7837 12.758 21.604 12.6919 21.4352 12.6088C21.151 12.4687 20.9033 12.2576 20.2077 11.6413L19.7336 11.2213C19.5345 11.0449 19.3987 10.9245 19.2531 10.8175C18.6284 10.3588 17.8678 10.0813 17.0714 10.0153C16.886 9.99998 16.6968 9.99999 16.4136 10L16.2971 10C15.6565 9.9999 15.2336 9.99983 14.8665 10.0612C13.2617 10.3295 11.9639 11.4514 11.6478 12.9357C11.5759 13.2734 11.576 13.6603 11.5762 14.2185L11.5762 20.4846Z" fill="#6FA5FF"/>
<path fill-rule="evenodd" clip-rule="evenodd" d="M11.3579 20.7787C10.7477 21.7201 10.9996 23.0291 11.5032 25.647C11.8658 27.5316 12.0471 28.4738 12.6752 29.0991C12.8382 29.2614 13.0205 29.4052 13.2186 29.5277C13.982 29.9999 14.9954 29.9999 17.0223 29.9999H23.9777C26.0046 29.9999 27.0181 29.9999 27.7814 29.5277C27.9795 29.4052 28.1618 29.2614 28.3248 29.0991C28.9529 28.4738 29.1342 27.5316 29.4968 25.647C30.0004 23.0291 30.2523 21.7201 29.6421 20.7787C29.4864 20.5384 29.2943 20.321 29.0721 20.1332C28.2011 19.3975 26.7933 19.3975 23.9777 19.3975H17.0223C14.2067 19.3975 12.7989 19.3975 11.9279 20.1332C11.7057 20.321 11.5136 20.5384 11.3579 20.7787ZM17.6952 25.1806C17.6952 24.7814 18.0376 24.4577 18.4601 24.4577H22.5398C22.9622 24.4577 23.3047 24.7814 23.3047 25.1806C23.3047 25.5798 22.9622 25.9035 22.5398 25.9035H18.4601C18.0376 25.9035 17.6952 25.5798 17.6952 25.1806Z" fill="#0B59DB"/>
</svg>
