<svg width="40" height="40" viewBox="0 0 40 40" fill="none" xmlns="http://www.w3.org/2000/svg">
<rect width="40" height="40" rx="10" fill="#E2FFE3"/>
<path fill-rule="evenodd" clip-rule="evenodd" d="M22 30H18C14.2288 30 12.3432 30 11.1716 28.8284C10 27.6569 10 25.7712 10 22V18C10 14.2288 10 12.3432 11.1716 11.1716C12.3432 10 14.2387 10 18.0298 10C18.6358 10 19.1214 10 19.53 10.0167C19.5166 10.0966 19.5095 10.1781 19.5092 10.2606L19.5 13.095C19.4999 14.1921 19.4998 15.1616 19.6049 15.9432C19.7188 16.7903 19.9803 17.6373 20.6716 18.3285C21.3628 19.0198 22.2098 19.2813 23.0569 19.3952C23.8385 19.5003 24.808 19.5002 25.9051 19.5001H29.9574C30 20.0344 30 20.6901 30 21.5629V22C30 25.7712 30 27.6569 28.8284 28.8284C27.6569 30 25.7712 30 22 30Z" fill="#A1FFA5"/>
<path d="M18.5606 23.4983C18.8358 23.1887 18.8079 22.7146 18.4983 22.4395C18.1887 22.1643 17.7146 22.1921 17.4395 22.5017L15.3333 24.8711L14.5606 24.0017C14.2854 23.6921 13.8113 23.6643 13.5017 23.9395C13.1922 24.2146 13.1643 24.6887 13.4394 24.9983L14.7728 26.4983C14.9151 26.6584 15.1191 26.75 15.3333 26.75C15.5476 26.75 15.7516 26.6584 15.8939 26.4983L18.5606 23.4983Z" fill="#4CAF50"/>
<path d="M19.5092 10.2601L19.5 13.0945C19.4999 14.1916 19.4998 15.1612 19.6049 15.9427C19.7188 16.7898 19.9803 17.6368 20.6716 18.3281C21.3629 19.0193 22.2098 19.2808 23.057 19.3947C23.8385 19.4998 24.808 19.4997 25.9051 19.4996H29.9574C29.9698 19.6552 29.9786 19.821 29.9848 19.9995H30C30 19.732 30 19.5983 29.9901 19.4408C29.9335 18.5463 29.5617 17.5212 29.0315 16.7985C28.9382 16.6713 28.8743 16.5949 28.7467 16.4422C27.9542 15.4936 26.911 14.3119 26 13.4995C25.1892 12.7764 24.0787 11.9854 23.1101 11.3385C22.2781 10.7827 21.862 10.5049 21.2915 10.2983C21.1403 10.2436 20.9408 10.1831 20.7846 10.1447C20.4006 10.0501 20.0268 10.0172 19.5 10.0059L19.5092 10.2601Z" fill="#4CAF50"/>
</svg>
