<svg width="40" height="40" viewBox="0 0 40 40" fill="none" xmlns="http://www.w3.org/2000/svg">
<rect width="40" height="40" rx="10" fill="#FFF5E5"/>
<path d="M11 18C11 14.2288 11 12.3432 12.1716 11.1716C13.3431 10 15.2288 10 19 10H21C24.7712 10 26.6569 10 27.8284 11.1716C29 12.3432 29 14.2288 29 18V22C29 25.7712 29 27.6569 27.8284 28.8284C26.6569 30 24.7712 30 21 30H19C15.2288 30 13.3431 30 12.1716 28.8284C11 27.6569 11 25.7712 11 22V18Z" fill="#FEE2B4"/>
<path d="M24.5189 24.5013C24.6939 24.3648 24.8526 24.2061 25.1701 23.8886L29.1275 19.9312C29.2231 19.8356 29.1793 19.6708 29.0515 19.6264C28.5844 19.4644 27.9767 19.1601 27.4083 18.5917C26.8399 18.0233 26.5356 17.4156 26.3736 16.9485C26.3292 16.8206 26.1644 16.7769 26.0688 16.8725L22.1114 20.8299C21.7939 21.1474 21.6352 21.3061 21.4987 21.4811C21.3377 21.6876 21.1996 21.9109 21.087 22.1473C20.9915 22.3476 20.9205 22.5606 20.7786 22.9865L20.5951 23.5368L20.3034 24.4118L20.0299 25.2323C19.9601 25.4419 20.0146 25.6729 20.1708 25.8292C20.3271 25.9854 20.5581 26.0399 20.7677 25.9701L21.5882 25.6966L22.4632 25.4049L23.0135 25.2214C23.4393 25.0795 23.6524 25.0085 23.8527 24.913C24.0891 24.8004 24.3124 24.6623 24.5189 24.5013Z" fill="#F5A623"/>
<path d="M30.3666 18.6922C31.2113 17.8475 31.2113 16.4781 30.3666 15.6335C29.522 14.7888 28.1526 14.7888 27.3079 15.6335L27.1807 15.7607C27.0579 15.8835 27.0023 16.055 27.033 16.2259C27.0523 16.3334 27.088 16.4905 27.1531 16.6781C27.2832 17.0531 27.5289 17.5455 27.9918 18.0083C28.4546 18.4712 28.947 18.7169 29.322 18.847C29.5096 18.9121 29.6667 18.9478 29.7742 18.9671C29.9451 18.9978 30.1166 18.9422 30.2394 18.8194L30.3666 18.6922Z" fill="#F5A623"/>
<path fill-rule="evenodd" clip-rule="evenodd" d="M15.25 17C15.25 16.5858 15.5858 16.25 16 16.25H22.5C22.9142 16.25 23.25 16.5858 23.25 17C23.25 17.4142 22.9142 17.75 22.5 17.75H16C15.5858 17.75 15.25 17.4142 15.25 17ZM15.25 21C15.25 20.5858 15.5858 20.25 16 20.25H19C19.4142 20.25 19.75 20.5858 19.75 21C19.75 21.4142 19.4142 21.75 19 21.75H16C15.5858 21.75 15.25 21.4142 15.25 21ZM15.25 25C15.25 24.5858 15.5858 24.25 16 24.25H17.5C17.9142 24.25 18.25 24.5858 18.25 25C18.25 25.4142 17.9142 25.75 17.5 25.75H16C15.5858 25.75 15.25 25.4142 15.25 25Z" fill="#F5A623"/>
</svg>
