<svg width="40" height="40" viewBox="0 0 40 40" fill="none" xmlns="http://www.w3.org/2000/svg">
<rect width="40" height="40" rx="10" fill="#EAF2FF"/>
<path d="M25.984 22.5084C26.0919 22.4638 26.1983 22.4163 26.3032 22.3661C26.5949 22.2264 26.9255 22.1774 27.2379 22.261L28.2341 22.5275C29.0192 22.7376 29.7375 22.0193 29.5274 21.2342L29.2609 20.238C29.1773 19.9256 29.2263 19.595 29.366 19.3033C29.7723 18.4545 29.9999 17.5038 29.9999 16.5C29.9999 12.9102 27.0897 10 23.4999 10C20.7899 10 18.4672 11.6585 17.4915 14.0159C17.6596 14.0054 17.8291 14 17.9999 14C22.4182 14 25.9999 17.5817 25.9999 22C25.9999 22.1708 25.9945 22.3403 25.984 22.5084Z" fill="#6FA5FF"/>
<path fill-rule="evenodd" clip-rule="evenodd" d="M26 22C26 26.4183 22.4183 30 18 30C16.7645 30 15.5944 29.7199 14.5498 29.2198C14.1907 29.0479 13.7839 28.9876 13.3994 29.0904L12.1733 29.4185C11.207 29.677 10.323 28.793 10.5815 27.8267L10.9095 26.6006C11.0124 26.2161 10.9521 25.8093 10.7802 25.4502C10.2801 24.4056 10 23.2355 10 22C10 17.5817 13.5817 14 18 14C22.4183 14 26 17.5817 26 22ZM14.5 23C15.0523 23 15.5 22.5523 15.5 22C15.5 21.4477 15.0523 21 14.5 21C13.9477 21 13.5 21.4477 13.5 22C13.5 22.5523 13.9477 23 14.5 23ZM18 23C18.5523 23 19 22.5523 19 22C19 21.4477 18.5523 21 18 21C17.4477 21 17 21.4477 17 22C17 22.5523 17.4477 23 18 23ZM21.5 23C22.0523 23 22.5 22.5523 22.5 22C22.5 21.4477 22.0523 21 21.5 21C20.9477 21 20.5 21.4477 20.5 22C20.5 22.5523 20.9477 23 21.5 23Z" fill="#0B59DB"/>
</svg>
