<svg width="40" height="40" viewBox="0 0 40 40" fill="none" xmlns="http://www.w3.org/2000/svg">
<rect width="40" height="40" rx="10" fill="#FFF5E5"/>
<path d="M10.1621 16.4995C10 17.6033 10 19.0494 10 20.9998C10 24.7711 10 26.6567 11.1716 27.8283C12.3432 28.9998 14.2288 28.9998 18 28.9998H22C25.7712 28.9998 27.6569 28.9998 28.8284 27.8283C30 26.6567 30 24.7711 30 20.9998C30 19.0495 30 17.6035 29.8379 16.4997C27.5613 17.9795 26.1021 18.9233 24.7501 19.5045V19.9999C24.7501 20.4141 24.4143 20.7499 24.0001 20.7499C23.5914 20.7499 23.259 20.423 23.2503 20.0163C21.12 20.5779 18.8802 20.5779 16.7499 20.0163C16.7412 20.4229 16.4088 20.7499 16.0001 20.7499C15.5859 20.7499 15.2501 20.4141 15.2501 19.9999V19.5044C13.898 18.9232 12.4388 17.9794 10.1621 16.4995Z" fill="#FEE2B4"/>
<path fill-rule="evenodd" clip-rule="evenodd" d="M18.5812 10.25H18.5608C18.4473 10.25 18.359 10.25 18.2754 10.255C17.2149 10.3193 16.2864 10.9886 15.8901 11.9743C15.8587 12.0524 15.807 12.2076 15.7701 12.3183L15.7662 12.3299C15.6631 12.6098 15.477 12.8522 15.2614 13.0253C15.034 13.0327 14.8167 13.0422 14.609 13.0545C12.9651 13.1514 11.9218 13.4212 11.1714 14.1716C10.9268 14.4162 10.7332 14.692 10.5801 15.0097C10.6376 15.0293 10.6937 15.0563 10.7471 15.091C12.8474 16.4562 14.167 17.3101 15.2634 17.8579C15.3299 17.5117 15.6344 17.2501 16 17.2501C16.4142 17.2501 16.75 17.5859 16.75 18.0001V18.458C18.8694 19.0976 21.1305 19.0976 23.25 18.458V18.0001C23.25 17.5859 23.5858 17.2501 24 17.2501C24.3656 17.2501 24.6701 17.5117 24.7365 17.8579C25.833 17.3102 27.1526 16.4562 29.253 15.091C29.3063 15.0564 29.3623 15.0294 29.4197 15.0098C29.2666 14.6921 29.073 14.4163 28.8283 14.1716C28.078 13.4212 27.0347 13.1514 25.3907 13.0545C25.1936 13.0428 24.9878 13.0337 24.7728 13.0265C24.7593 13.0155 24.7457 13.0041 24.7321 12.9923C24.4914 12.7844 24.3032 12.5101 24.2083 12.2529L24.2052 12.2434C24.1693 12.1358 24.1414 12.052 24.1101 11.9743C23.7139 10.9886 22.7853 10.3193 21.7248 10.255C21.6412 10.25 21.5529 10.25 21.4394 10.25H18.5812ZM22.8175 12.8157L22.813 12.805L22.8081 12.7929L22.8035 12.7809L22.7999 12.771L22.7981 12.766L22.7939 12.7537L22.7901 12.7424L22.788 12.7362L22.7852 12.7278L22.783 12.7208L22.7812 12.7151C22.7418 12.5971 22.7297 12.562 22.7184 12.5338C22.5383 12.0857 22.1162 11.7815 21.6342 11.7523C21.6019 11.7503 21.5623 11.75 21.419 11.75H18.5812C18.4379 11.75 18.3983 11.7503 18.3661 11.7523C17.8841 11.7815 17.4621 12.0856 17.2819 12.5335L17.2793 12.5405L17.2713 12.5625C17.2647 12.581 17.2566 12.6043 17.2473 12.6316C17.2308 12.6799 17.2122 12.7355 17.1934 12.7919L17.1916 12.7978L17.1893 12.8048L17.1866 12.8131L17.1845 12.8194L17.1807 12.8307L17.1764 12.843L17.1746 12.848L17.171 12.8579L17.1664 12.8699L17.1616 12.882L17.1574 12.8919L17.1567 12.8934C17.1428 12.9292 17.1281 12.965 17.1125 13.0006C17.3961 13 17.6917 13 17.9999 13H21.9999C22.3114 13 22.61 13 22.8964 13.0007C22.8679 12.9396 22.8416 12.8778 22.8175 12.8157Z" fill="#F5A623"/>
</svg>
