<svg width="40" height="40" viewBox="0 0 40 40" fill="none" xmlns="http://www.w3.org/2000/svg">
<rect width="40" height="40" rx="10" fill="#E2FFE3"/>
<path d="M9 20C9 14.8145 9 12.2218 10.6109 10.6109C12.2218 9 14.8145 9 20 9C25.1854 9 27.7782 9 29.3891 10.6109C31 12.2218 31 14.8145 31 20C31 25.1854 31 27.7782 29.3891 29.3891C27.7782 31 25.1854 31 20 31C14.8145 31 12.2218 31 10.6109 29.3891C9 27.7782 9 25.1854 9 20Z" fill="#A1FFA5"/>
<path d="M21.9265 22.302C22.1716 22.1109 22.3938 21.8887 22.8382 21.4443L28.3785 15.9039C28.5125 15.77 28.4512 15.5393 28.2722 15.4772C27.6182 15.2503 26.7675 14.8243 25.9717 14.0285C25.176 13.2327 24.75 12.382 24.5231 11.7281C24.461 11.5491 24.2303 11.4878 24.0964 11.6217L18.556 17.1621C18.1116 17.6065 17.8894 17.8287 17.6983 18.0738C17.4728 18.3628 17.2796 18.6755 17.1219 19.0064C16.9882 19.2869 16.8888 19.585 16.6901 20.1812L16.4333 20.9517L16.0249 22.1767L15.642 23.3254C15.5442 23.6188 15.6206 23.9423 15.8393 24.161C16.058 24.3797 16.3815 24.4561 16.6749 24.3583L17.8236 23.9754L19.0486 23.567L19.8191 23.3102C20.4153 23.1115 20.7134 23.0121 20.9939 22.8784C21.3248 22.7207 21.6375 22.5275 21.9265 22.302Z" fill="#4CAF50"/>
<path d="M30.1133 14.169C31.2958 12.9866 31.2958 11.0694 30.1133 9.88687C28.9308 8.70438 27.0136 8.70438 25.8311 9.88687L25.653 10.065C25.4811 10.2369 25.4033 10.4769 25.4462 10.7162C25.4732 10.8667 25.5233 11.0867 25.6144 11.3493C25.7966 11.8744 26.1406 12.5637 26.7886 13.2116C27.4365 13.8596 28.1258 14.2036 28.6509 14.3858C28.9135 14.4769 29.1335 14.527 29.284 14.554C29.5232 14.5969 29.7633 14.519 29.9352 14.3472L30.1133 14.169Z" fill="#4CAF50"/>
</svg>
