<svg width="40" height="40" viewBox="0 0 40 40" fill="none" xmlns="http://www.w3.org/2000/svg">
<path d="M0 20C0 10.5719 0 5.85786 2.92893 2.92893C5.85786 0 10.5719 0 20 0C29.4281 0 34.1421 0 37.0711 2.92893C40 5.85786 40 10.5719 40 20C40 29.4281 40 34.1421 37.0711 37.0711C34.1421 40 29.4281 40 20 40C10.5719 40 5.85786 40 2.92893 37.0711C0 34.1421 0 29.4281 0 20Z" fill="#EAF2FF"/>
<path d="M23 17C24.6569 17 26 15.6568 26 14C26 12.3432 24.6569 11 23 11C21.3431 11 20 12.3432 20 14C20 15.6568 21.3431 17 23 17Z" fill="#6FA5FF"/>
<path d="M24 28C26.7614 28 29 26.6569 29 25C29 23.3431 26.7614 22 24 22C21.2386 22 19 23.3431 19 25C19 26.6569 21.2386 28 24 28Z" fill="#6FA5FF"/>
<path d="M17.001 18C19.2101 18 21.001 16.2091 21.001 14C21.001 11.7909 19.2101 10 17.001 10C14.7918 10 13.001 11.7909 13.001 14C13.001 16.2091 14.7918 18 17.001 18Z" fill="#4285F4"/>
<path d="M17.001 29.001C20.867 29.001 24.001 27.2101 24.001 25.001C24.001 22.7918 20.867 21.001 17.001 21.001C13.135 21.001 10.001 22.7918 10.001 25.001C10.001 27.2101 13.135 29.001 17.001 29.001Z" fill="#4285F4"/>
</svg>