<svg width="40" height="40" viewBox="0 0 40 40" fill="none" xmlns="http://www.w3.org/2000/svg">
<path d="M0 20C0 10.5719 0 5.85786 2.92893 2.92893C5.85786 0 10.5719 0 20 0C29.4281 0 34.1421 0 37.0711 2.92893C40 5.85786 40 10.5719 40 20C40 29.4281 40 34.1421 37.0711 37.0711C34.1421 40 29.4281 40 20 40C10.5719 40 5.85786 40 2.92893 37.0711C0 34.1421 0 29.4281 0 20Z" fill="#FFF5E5"/>
<path d="M23.9998 10H22.9998C20.1714 10 18.7576 10.0002 17.8789 10.8789C17.0002 11.7576 17.0002 13.1718 17.0002 16.0002V24.0002C17.0002 26.8287 17.0002 28.2429 17.8789 29.1215C18.7574 30 20.1706 30 22.9976 30H23.9998C26.8282 30 28.2424 30 29.1211 29.1213C29.9998 28.2426 29.9998 26.8284 29.9998 24V16C29.9998 13.1716 29.9998 11.7574 29.1211 10.8787C28.2424 10 26.8282 10 23.9998 10Z" fill="#FEE2B4"/>
<path fill-rule="evenodd" clip-rule="evenodd" d="M9.25098 19.999C9.25098 19.5848 9.58676 19.249 10.001 19.249H21.9735L20.0129 17.5685C19.6984 17.2989 19.662 16.8254 19.9315 16.5109C20.2011 16.1964 20.6746 16.16 20.9891 16.4296L24.4891 19.4296C24.6553 19.5721 24.751 19.7801 24.751 19.999C24.751 20.218 24.6553 20.426 24.4891 20.5685L20.9891 23.5685C20.6746 23.838 20.2011 23.8016 19.9315 23.4871C19.662 23.1726 19.6984 22.6991 20.0129 22.4296L21.9735 20.749H10.001C9.58676 20.749 9.25098 20.4132 9.25098 19.999Z" fill="#F5A623"/>
</svg>