<svg width="430" height="932" viewBox="0 0 430 932" fill="none" xmlns="http://www.w3.org/2000/svg">
<g clip-path="url(#clip0_63_5221)">
<path d="M0 -70H68.0731H80.6419H202.683H220.851H339.661H353.516H365.93H430V427.737V469.113V470.194V528.445V530.686V551.313V566.74V582.831V683.193V827.269V932H380.375H319.886H257.201H202.619H176.88H0V877.78V824.412V807.455L9.8559 807.283C10.4671 805.047 12.2592 800.629 13.125 798.291L10.2566 798.364C6.83641 798.506 3.41746 798.677 0 798.878L0 766.151V758.054V743.068V589.857V585.826C6.0993 586.32 49.5625 590.165 50.764 589.515L45.5249 581.687C47.922 577.772 50.5531 573.995 53.14 570.204C61.9117 558.858 68.6259 551.494 78.8554 541.367L78.6044 539.845C76.7303 535.745 70.9055 506.796 69.7177 501.003L69.3141 498.483C46.5495 496.658 22.6736 494.207 0 492.989V473.482V465.189V446.221V434.513V433.402V391.802V-70Z" fill="#D6DAF0"/>
<path d="M126.108 503.479C128.712 546.533 140.067 591.521 173.05 622.305C173.221 622.466 173.581 622.784 173.75 622.911L178.733 627.339C180.254 633.895 181.57 639.36 184.519 645.496C203.834 685.683 246.847 686.5 276.658 657.883C285.628 649.444 292.202 638.876 297.273 627.745C298.086 626.757 299.189 626.013 300.217 625.23C323.456 609.261 339.497 590.85 355.157 567.728C357.426 570.399 360.777 575.155 363.769 575.008C363.799 575.018 363.829 575.033 363.859 575.047C385.932 576.858 408.192 578.888 430 582.831V683.193V827.269V932H380.375H319.886H257.201H202.619H176.88H0V877.78V824.412V807.454L9.8559 807.283C10.4671 805.047 12.2592 800.629 13.125 798.291L10.2566 798.364C6.83641 798.506 3.41746 798.677 0 798.878L0 766.151V758.054V743.068V589.857V585.826C6.0993 586.32 49.5625 590.165 50.764 589.515L45.5249 581.686C47.922 577.772 50.5531 573.995 53.14 570.204C61.9117 558.858 68.6259 551.494 78.8554 541.367C95.1034 526.518 107.77 515.96 126.108 503.479Z" fill="#D6DAF0"/>
<path d="M155.321 736.928C166.387 736.918 177.453 736.855 188.518 736.732C203.609 736.62 213.143 733.65 222.532 747.476C229.134 760.882 229.962 777.253 225.198 791.348C223.631 796.123 221.194 800.571 218.01 804.46L245.532 804.269C255.89 804.211 267.03 802.645 275.031 810.547C275.414 810.928 275.778 811.325 276.123 811.736C281.576 819.373 283.376 827.049 282.474 836.389C280.982 851.84 271.973 861.224 257.161 864.981L257.201 932H202.619H176.88H0V877.78V824.412V807.454L9.8559 807.283C10.4671 805.047 12.2592 800.629 13.125 798.291L10.2566 798.364C6.83641 798.506 3.41746 798.677 0 798.878L0 766.151V758.054V743.068L4.29252 741.395L48.1776 739.692C57.211 739.487 66.2401 739.139 75.2622 738.645C80.8557 739.086 101.432 738.2 108.078 737.921C123.23 737.285 140.616 737.843 155.321 736.928Z" fill="#96341E"/>
<path d="M155.321 736.928C166.387 736.918 177.453 736.855 188.518 736.732C203.609 736.62 213.143 733.65 222.532 747.476C229.134 760.882 229.962 777.253 225.198 791.348C223.631 796.123 221.194 800.571 218.01 804.46L9.8559 807.283C10.4671 805.047 12.2592 800.629 13.125 798.291L10.2566 798.364C6.83641 798.506 3.41746 798.677 0 798.878L0 766.151V758.054V743.068L4.29252 741.395L48.1776 739.692C57.211 739.487 66.2401 739.139 75.2622 738.645C80.8557 739.086 101.432 738.2 108.078 737.921C123.23 737.285 140.616 737.843 155.321 736.928Z" fill="#3B2590"/>
<path d="M155.321 736.928C166.387 736.918 177.453 736.855 188.518 736.732C203.609 736.62 213.143 733.65 222.532 747.476C207.344 747.882 191.419 748.964 176.158 749.751L93.2278 754.047C84.3788 754.502 15.4412 757.384 12.3639 758.715C12.1946 758 11.5736 756.753 11.2483 756.029C7.98034 756.645 3.19082 757.697 0 758.054V743.068L4.29252 741.395L48.1776 739.692C57.211 739.487 66.2401 739.139 75.2622 738.645C80.8557 739.086 101.432 738.2 108.078 737.921C123.23 737.285 140.616 737.843 155.321 736.928Z" fill="#4D30BE"/>
<path d="M0 743.068L4.29252 741.395C5.90357 744.076 11.15 753.23 11.2483 756.029C7.98034 756.645 3.19082 757.697 0 758.054V743.068Z" fill="#3B2590"/>
<path d="M11.2483 756.029C11.5736 756.753 12.1946 758 12.3639 758.715C16.7526 773.123 16.7499 783.686 13.125 798.291L10.2566 798.364C6.83641 798.506 3.41746 798.677 0 798.878L0 766.151V758.054C3.19082 757.697 7.98034 756.645 11.2483 756.029Z" fill="#D6DAF0"/>
<path d="M11.2483 756.029C11.5736 756.753 12.1946 758 12.3639 758.715C16.7526 773.123 16.7499 783.686 13.125 798.291L10.2566 798.364C12.8452 788.065 12.3913 775.359 7.82067 765.613C5.42397 765.667 2.43712 765.965 0 766.151V758.054C3.19082 757.697 7.98034 756.645 11.2483 756.029Z" fill="#A1ABDB"/>
<path d="M94.602 874.463C121.796 873.817 149.578 871.689 176.68 871.259C177.057 891.485 176.389 911.916 176.88 932H0V877.78C30.927 877.125 63.6679 875.755 94.602 874.463Z" fill="#D59B58"/>
<path d="M202.426 869.791C218.79 868.905 241.854 868.352 257.161 864.981L257.201 932H202.619H176.88C176.389 911.916 177.057 891.485 176.68 871.259C184.749 870.515 194.248 870.231 202.426 869.791Z" fill="#A1ABDB"/>
<path d="M176.68 871.259C184.749 870.515 194.248 870.231 202.426 869.791C202.745 890.526 202.809 911.265 202.619 932H176.88C176.389 911.916 177.057 891.485 176.68 871.259Z" fill="#FDC079"/>
<path d="M218.01 804.46L245.532 804.269C255.89 804.211 267.03 802.645 275.031 810.547C275.414 810.928 275.778 811.324 276.123 811.735C253.139 812.058 226.54 813.927 203.423 815.004L64.2187 821.491C44.2828 822.426 19.4671 824.265 0 824.412V807.454L9.8559 807.283L218.01 804.46Z" fill="#CD4133"/>
<path d="M300.217 625.23C323.456 609.261 339.497 590.85 355.157 567.728C357.426 570.399 360.777 575.155 363.769 575.008C363.799 575.018 363.829 575.033 363.859 575.047C385.932 576.858 408.192 578.888 430 582.831V683.193V827.269V932H380.375H319.886L319.825 847.549C319.929 832.157 321.074 816.892 320.302 801.353C318.01 755.197 311.922 709.026 305.937 663.221C305.146 657.164 301.72 627.975 300.217 625.23Z" fill="#A1ABDB"/>
<path d="M357.049 844.981C352.29 823.683 346.705 801.011 343.85 778.676C339.273 742.877 332.549 686.867 354.633 655.095C361.214 646.313 369.76 641.391 380.402 639.805C397.23 637.305 401.441 646.21 412.545 654.586C415.28 659.253 418.624 663.676 421.551 668.3C424.669 673.227 427.098 678.232 430 683.193V827.269L387.244 837.652C377.167 840.044 367.102 842.485 357.049 844.981Z" fill="#D6DAF0"/>
<path d="M430 827.269V932H380.375C388.828 915.913 393.169 906.03 392.203 887.12C391.336 870.173 390.465 854.414 387.244 837.652L430 827.269Z" fill="#B1682C"/>
<path d="M412.545 654.586C411.287 651.073 407.551 644.091 405.786 640.73C397.954 625.705 389.095 611.238 379.272 597.436C377.36 594.769 362.655 576.437 362.492 575.36L363.859 575.047C385.932 576.858 408.192 578.888 430 582.831V683.193C427.098 678.232 424.669 673.227 421.551 668.3C418.624 663.676 415.28 659.253 412.545 654.586Z" fill="#24252D"/>
<path d="M0 585.826C6.0993 586.32 49.5625 590.165 50.764 589.515C51.5041 590.567 53.2965 592.984 53.8283 594.006C62.7061 605.504 71.2161 617.035 81.2279 627.643L85.8371 626.767C91.3792 626.909 94.352 627.501 99.4376 629.908C102.264 631.243 106.753 636.165 108.391 635.96L108.702 635.559C110.163 635.573 115.539 634.477 117.048 634.032C118.968 634.15 124.277 634.336 125.771 634.967C122.876 645.496 123.893 654.038 131.841 662.125C125.492 678.212 132.701 693.13 149.607 697.406C151.542 697.548 153.795 697.768 155.708 697.714C161.201 703.859 164.638 705.968 172.727 707.803L173.131 708.385C170.885 717.475 161.706 730.382 155.321 736.928C140.616 737.843 123.23 737.285 108.078 737.921C101.432 738.2 80.8557 739.086 75.2622 738.645C66.2401 739.139 57.211 739.487 48.1776 739.692L4.29252 741.395L0 743.068V589.857V585.826Z" fill="#CD4133"/>
<path d="M0 585.826C6.0993 586.32 49.5625 590.165 50.764 589.515C51.5041 590.567 53.2965 592.984 53.8283 594.006C62.7061 605.504 71.2161 617.035 81.2279 627.643C50.399 637.041 46.158 683.599 54.1687 709.779C54.3992 710.537 54.6486 711.291 54.9157 712.035C55.7024 714.026 56.7923 717.059 57.8299 718.83C61.9836 727.275 67.0658 733.772 75.2622 738.645C66.2401 739.139 57.211 739.487 48.1776 739.692L4.29252 741.395L0 743.068V589.857V585.826Z" fill="#FAF9FD"/>
<path d="M54.9157 712.035C55.7024 714.026 56.7923 717.059 57.8299 718.83C61.9836 727.275 67.0658 733.772 75.2622 738.645C66.2401 739.139 57.211 739.487 48.1776 739.692C49.8996 734.545 53.2642 718.454 54.9157 712.035Z" fill="#D6DAF0"/>
<path d="M0 585.826C6.0993 586.32 49.5625 590.165 50.764 589.515C51.5041 590.567 53.2965 592.984 53.8283 594.006C36.3951 593.297 17.6573 590.978 0 589.857V585.826Z" fill="#D6DAF0"/>
<path d="M149.607 697.406C151.542 697.548 153.795 697.768 155.708 697.714C161.201 703.859 164.638 705.968 172.727 707.802L173.131 708.385C170.885 717.475 161.706 730.382 155.321 736.928C140.616 737.843 123.23 737.285 108.078 737.921C101.432 738.2 80.8557 739.086 75.2622 738.645C67.0658 733.772 61.9836 727.275 57.8299 718.83C59.9417 719.173 63.935 720.709 66.0375 721.565C92.3243 732.236 134.877 737.593 146.749 704.255C147.445 702.298 148.423 699.49 149.445 697.69L149.607 697.406Z" fill="#96341E"/>
<path d="M125.771 634.967C133.464 633.215 146.426 635.001 153.253 639.287C154.642 640.167 155.964 641.146 157.209 642.217C155.025 653.074 153.824 660.618 162.026 669.107C164.052 678.599 166.172 686.29 177.446 687.107C177.075 694.084 176.748 700.552 173.743 707.005L172.727 707.803C164.638 705.968 161.201 703.859 155.708 697.714C153.795 697.768 151.542 697.548 149.607 697.406C132.701 693.13 125.492 678.212 131.841 662.125C123.893 654.038 122.876 645.496 125.771 634.967Z" fill="#FAF9FD"/>
<path d="M53.14 570.204C66.9318 585.503 79.8557 593.928 98.9103 601.448C94.261 609.736 89.9008 618.18 85.8371 626.767L81.2279 627.642C71.2161 617.035 62.7061 605.504 53.8283 594.006C53.2965 592.983 51.5041 590.567 50.764 589.515L45.5249 581.686C47.922 577.772 50.5531 573.995 53.14 570.204Z" fill="#A1ABDB"/>
<path d="M108.702 635.559C110.713 627.417 113.666 620.558 119.457 614.344C123.023 610.523 136.087 599.065 141.268 604.099C142.515 607.744 140.149 609.153 137.382 610.67C126.73 616.522 121.071 622.544 117.048 634.032C115.539 634.477 110.163 635.573 108.702 635.559Z" fill="#96341E"/>
<path d="M170.234 668.897C203.039 693.731 239.484 714.129 281.795 712.093L282.049 713.16C268.123 716.291 253.727 716.731 239.636 714.461C210.298 709.559 187.202 692.66 170.234 668.897Z" fill="#A1ABDB"/>
<path d="M285.455 687.376L285.414 688.325C274.164 709.285 252.129 708.023 233.326 699.074L228.332 696.251C248.069 701.437 269.063 700.424 285.455 687.376Z" fill="#A1ABDB"/>
<path d="M281.795 712.093C283.067 711.824 286.815 711.027 287.987 710.958L287.489 712.186L288.991 711.271C287.325 712.353 284.108 712.764 282.049 713.16L281.795 712.093Z" fill="#C4CDE9"/>
<path d="M263.953 245.546C269.015 244.89 274.614 243.729 279.581 243.346C299.173 241.835 312.523 244.742 330.625 250.806C331.647 251.304 334.475 252.597 335.286 253.142C367.669 267.602 390.717 298.463 403.044 330.942C412.999 357.17 417.111 384.981 416.708 412.994C416.67 415.649 416.392 425.325 415.919 427.526L416.462 427.017C418.259 426.582 427.375 427.526 430 427.737V469.113V470.194V528.445V530.686V551.313V566.74V582.831C408.192 578.888 385.932 576.858 363.859 575.047C363.829 575.033 363.799 575.018 363.769 575.008C360.777 575.155 357.426 570.399 355.157 567.728C339.497 590.85 323.456 609.261 300.217 625.23C299.189 626.013 298.086 626.757 297.273 627.745C292.202 638.876 285.628 649.444 276.658 657.884C246.847 686.5 203.834 685.683 184.519 645.496C181.57 639.36 180.254 633.895 178.733 627.339L173.75 622.911C173.581 622.784 173.221 622.466 173.05 622.305C140.067 591.521 128.712 546.533 126.108 503.479C126.061 491.169 125.769 481.736 126.808 469.211C127.935 455.629 130.236 444.694 132.314 431.445C132.908 430.486 139.056 406.568 139.958 403.624C140.359 402.794 142.109 397.437 142.539 396.233C144.437 390.82 146.458 385.45 148.6 380.129C156.196 361.63 164.319 347.505 175.166 330.946C167.615 331.75 160.306 332.929 152.815 334.103C159.895 322.904 165.617 314.546 174.054 304.352C199.015 273.973 226.497 256.177 263.953 245.546Z" fill="#D59B58"/>
<path d="M263.953 245.546C269.015 244.89 274.614 243.729 279.581 243.346C299.173 241.835 312.523 244.742 330.625 250.806C331.647 251.304 334.475 252.597 335.286 253.142C367.669 267.602 390.717 298.463 403.044 330.942C412.999 357.17 417.111 384.981 416.708 412.994C416.67 415.649 416.392 425.325 415.919 427.526L416.462 427.017C418.259 426.582 427.375 427.526 430 427.737V469.113V470.194V528.445C425.824 527.995 419.765 528.353 416.903 525.926C417.837 524.013 418.664 522.056 419.38 520.055C424.533 505.24 417.603 495.357 403.656 490.474C399.487 489.579 396.266 489.349 392.027 489.187C380.443 502.652 372.199 507.755 355.519 513.176C346.107 483.248 348.611 436.67 358.926 407.186C344.909 385.098 325.731 366.751 303.043 353.729C298.714 351.252 291.698 347.531 287.025 346.012C283.284 343.817 275.045 341.003 270.741 339.604C241.873 330.221 205.328 327.274 175.166 330.946C167.615 331.75 160.306 332.929 152.815 334.103C159.895 322.904 165.617 314.546 174.054 304.352C199.015 273.973 226.497 256.177 263.953 245.546Z" fill="#5D2318"/>
<path d="M263.953 245.546C269.015 244.89 274.614 243.729 279.581 243.346C299.173 241.835 312.523 244.742 330.625 250.806C331.647 251.304 334.475 252.597 335.286 253.142C335.941 255.495 341.803 260.758 343.718 262.814C367.134 287.95 353.576 316.672 322.199 324.607C283.893 334.295 211.445 325.562 178.13 306.767C176.756 305.987 175.398 305.181 174.054 304.352C199.015 273.973 226.497 256.177 263.953 245.546Z" fill="#96341E"/>
<path d="M409.731 468.526L410.114 466.814C410.339 467.019 410.609 467.264 410.924 467.552C416.37 467.973 424.91 468.614 430 469.113V470.194V528.446C425.824 527.995 419.765 528.353 416.903 525.926C417.837 524.013 418.664 522.056 419.38 520.055C424.533 505.24 417.603 495.357 403.656 490.474C405.863 483.209 407.889 475.889 409.731 468.526Z" fill="#FAF9FD"/>
<path d="M409.731 468.526L410.114 466.814C410.339 467.019 410.609 467.264 410.924 467.552C416.37 467.973 424.91 468.614 430 469.113V470.194C424.253 469.387 415.705 468.986 409.731 468.526Z" fill="#C4CDE9"/>
<path d="M415.919 427.526L416.462 427.017C418.259 426.582 427.375 427.526 430 427.737V469.113C424.91 468.614 416.37 467.973 410.924 467.552C410.609 467.264 410.339 467.019 410.114 466.814C412.895 454.157 415.183 440.457 415.919 427.526Z" fill="#FAF9FD"/>
<path d="M287.025 346.013C291.698 347.531 298.714 351.252 303.043 353.729C325.731 366.751 344.909 385.098 358.926 407.186C348.611 436.671 346.107 483.248 355.519 513.176C372.199 507.755 380.443 502.652 392.027 489.187C396.266 489.349 399.487 489.579 403.657 490.474C417.603 495.357 424.533 505.24 419.38 520.055C418.664 522.056 417.837 524.013 416.903 525.926C419.765 528.353 425.824 527.995 430 528.446V530.686V551.313V566.74V582.831C408.192 578.888 385.932 576.858 363.859 575.047C363.829 575.033 363.799 575.018 363.769 575.008C360.777 575.155 357.426 570.399 355.157 567.728C339.497 590.85 323.456 609.261 300.217 625.23C299.189 626.013 298.086 626.757 297.273 627.745C292.202 638.876 285.628 649.444 276.658 657.884C246.847 686.5 203.834 685.683 184.519 645.496C181.57 639.36 180.254 633.895 178.733 627.339L173.75 622.911C175.48 622.579 178.968 622.657 180.799 622.633C271.466 621.214 326.788 548.96 330.952 462.665C332.873 422.864 321.105 388.252 296.251 357.187C293.279 353.472 289.777 349.798 287.025 346.013Z" fill="#B1682C"/>
<path d="M416.903 525.926C419.765 528.352 425.824 527.995 430 528.445V530.686V551.313V566.74V582.831C408.192 578.888 385.932 576.858 363.859 575.047C363.829 575.033 363.799 575.018 363.769 575.008C360.777 575.155 357.426 570.399 355.157 567.728C357.313 564.318 359.431 560.883 361.508 557.424C363.338 557.385 365.167 557.287 366.992 557.136C385.28 555.58 401.458 545.545 413.109 531.699L416.903 525.926Z" fill="#FAF9FD"/>
<path d="M416.903 525.926C419.765 528.353 425.824 527.995 430 528.445V530.686V551.313V566.74C428.52 564.592 425.058 556.959 423.802 554.288L413.109 531.699L416.903 525.926Z" fill="#D6DAF0"/>
<path d="M419.234 529.845L430 530.686V551.313C427.153 546.68 421.88 535.183 419.234 529.845Z" fill="#FAF9FD"/>
<path d="M204.948 642.036C232.592 650.525 253.932 648.118 280.391 636.66C285.864 634.291 292.108 629.722 297.273 627.745C292.202 638.876 285.628 649.444 276.658 657.884C275.754 658.074 274.847 658.25 273.938 658.417C248.774 662.977 225.664 656.44 204.948 642.036Z" fill="#96341E"/>
<path d="M392.906 503.058C397.353 502.446 402.281 503.107 406.563 504.354C395.825 506.184 386.426 507.931 381.365 518.553C390.494 520.128 396.044 522.036 394.462 532.497C393.461 534.83 390.643 537.555 388.239 537.595C374.506 537.8 369.296 521.841 377.03 511.884C381.388 506.272 386.527 504.061 392.906 503.058Z" fill="#96341E"/>
<path d="M191.804 484.867C221.483 498.454 249.261 499.134 279.943 488.654C277.668 495.646 275.271 499.584 270.737 505.274C244.176 534.131 201.589 522.139 191.804 484.867Z" fill="#FAF9FD"/>
<path d="M244.936 397.594C245.433 399.681 245.162 406.311 245.082 408.644C244.598 422.516 242.49 436.064 234.162 447.542C223.457 462.293 199.863 472.607 183.661 460.502C182.675 459.553 181.813 458.487 181.095 457.327C174.706 446.95 188.428 440.878 196.417 439.229C203.83 437.698 210.174 438.334 217.377 440.271C226.552 423.519 233.3 412.771 244.936 397.594Z" fill="#96341E"/>
<path d="M204.126 366.547C216.856 365.86 226.253 368.095 233.669 379.04L212.187 380.218C202.753 380.777 193.314 381.269 183.872 381.694C188.303 372.125 193.794 368.281 204.126 366.547Z" fill="#96341E"/>
<path d="M277.155 394.936C294.436 392.434 303.592 407.401 307.824 421.782L301.542 417.976C290.27 411.131 279.037 404.221 267.843 397.25C271.559 396.054 273.323 395.515 277.155 394.936Z" fill="#96341E"/>
<path d="M278.427 425.148C293.871 424.131 289.785 443.207 285.572 451.921C285.226 446.764 284.916 444.024 281.324 440.022C274.32 435.8 270.013 440.36 265.465 445.394C266.948 436.284 269.35 429.175 278.427 425.148Z" fill="#24252D"/>
<path d="M199.692 395.381C215.718 392.913 211.813 412.942 207.652 421.758C207.283 416.796 206.706 414.429 203.82 410.445C196.941 405.396 191.945 410.376 187.458 415.485C188.764 406.411 191.289 399.877 199.692 395.381Z" fill="#24252D"/>
<path d="M0 -70H68.0731L68.1044 0.886612C68.099 12.9855 68.3524 26.1719 68.008 38.2047C74.0148 45.2417 76.2817 49.672 80.4893 58.0035C84.9179 68.8367 88.9772 79.16 92.2103 90.4516C93.1926 93.8828 94.8661 98.223 95.2536 101.698L97.338 110.863C98.5972 117.284 101.909 116.578 105.185 124.443C109.567 146.215 103.58 164.82 101.183 186.495C100.772 190.208 98.4328 194.565 98.2024 198.441C98.3824 203.817 99.6035 214.685 100.716 219.954C101.172 224.143 101.75 228.319 102.448 232.475L218.443 241.615L248.539 243.95C251.368 244.171 261.598 244.841 263.953 245.546C226.497 256.177 199.015 273.973 174.054 304.352C165.617 314.546 159.895 322.904 152.815 334.103C160.306 332.929 167.615 331.75 175.166 330.946C164.319 347.505 156.196 361.63 148.6 380.129C146.458 385.45 144.437 390.82 142.539 396.233C142.109 397.437 140.359 402.794 139.958 403.624C139.056 406.568 132.908 430.486 132.314 431.445C130.236 444.694 127.935 455.629 126.808 469.211C125.769 481.736 126.061 491.169 126.108 503.479C107.77 515.96 95.1034 526.518 78.8554 541.367L78.6044 539.845C76.7303 535.745 70.9055 506.796 69.7177 501.003L69.3141 498.483C46.5495 496.658 22.6736 494.207 0 492.989V473.482V465.189V446.221V434.513V433.402V391.802V-70Z" fill="#D59B58"/>
<path d="M0 -70H68.0731L68.1044 0.886612C68.099 12.9855 68.3524 26.1719 68.008 38.2047C64.2099 35.9224 59.8952 35.4899 57.9013 40.1946C50.6016 57.4194 55.9998 84.4783 59.2994 102.087C47.5354 100.612 44.8545 106.592 43.1575 117.015C27.5099 106.395 23.8112 122.329 21.6177 133.552C21.298 135.188 16.723 136.019 16.0319 138.16C12.5505 148.598 13.156 162.058 15.4799 172.818C18.1945 185.387 24.2325 191.214 36.8375 186.105C37.9648 196.541 39.2654 208.956 50.3785 213.269C53.3567 241.911 53.1551 270.789 53.5083 299.561C53.6957 331.994 54.7753 364.415 56.7458 396.788C48.2367 396.094 38.889 395.139 30.4206 394.771C25.3497 393.546 6.34267 392.423 0 391.802V-70Z" fill="#F8AB98"/>
<path d="M102.448 232.475L218.443 241.615L248.539 243.95C251.368 244.171 261.598 244.841 263.953 245.546C226.497 256.177 199.015 273.973 174.054 304.352C165.617 314.546 159.895 322.904 152.815 334.104C160.306 332.929 167.615 331.75 175.166 330.946C164.319 347.505 156.196 361.63 148.6 380.129C146.458 385.45 144.437 390.82 142.539 396.233C142.109 397.437 140.359 402.794 139.958 403.624C135.848 403.378 131.74 403.185 127.658 402.639C124.308 386.233 121.329 362.306 118.695 345.24C118.698 343.612 117.468 336.358 117.176 334.511C116.089 327.697 115.049 320.876 114.056 314.048C110.112 287.167 105.796 259.382 102.448 232.475Z" fill="#F8AB98"/>
<path d="M0 391.802C6.34267 392.423 25.3497 393.546 30.4206 394.771C38.889 395.139 48.2367 396.094 56.7458 396.788L56.9938 399.814L57.5603 407.187C58.3685 417.584 59.3136 427.971 60.3942 438.344L60.5351 439.547C62.7492 458.359 65.4534 479.877 69.3141 498.483C46.5495 496.658 22.6736 494.207 0 492.989V473.482V465.189V446.221V434.513V433.402V391.802Z" fill="#FAF9FD"/>
<path d="M0 391.802C6.34267 392.423 25.3497 393.546 30.4206 394.771C38.889 395.139 48.2367 396.094 56.7458 396.788L56.9938 399.814C56.0693 402.417 26.7014 435.022 25.0015 435.482C22.107 435.027 18.4982 434.88 15.5155 434.679L14.2557 435.868L7.23085 435.178C6.50171 434.899 1.09622 434.601 0 434.513V433.402V391.802Z" fill="#FAF9FD"/>
<path d="M0 391.802C6.34267 392.423 25.3497 393.546 30.4206 394.771C28.8435 394.79 26.4385 394.596 25.2122 395.412C23.0082 398.598 19.8881 405.668 18.0775 409.427L6.29703 433.906C4.32146 433.593 2.01885 433.52 0 433.402V391.802Z" fill="#D6DAF0"/>
<path d="M0 433.402C2.01885 433.52 4.32146 433.593 6.29703 433.906C7.90681 433.999 14.4147 434.254 15.5155 434.679L14.2557 435.868L7.23085 435.178C6.50171 434.899 1.09622 434.601 0 434.513V433.402Z" fill="#D6DAF0"/>
<path d="M56.9938 399.814L57.5603 407.187C58.3685 417.584 59.3136 427.972 60.3942 438.344L60.5351 439.547C52.0726 438.882 40.7837 438.305 32.6856 437.057C29.084 437.478 11.1522 461.349 7.02138 465.326C5.45689 466.833 1.71498 471.638 0 473.482V465.189V446.221V434.513C1.09622 434.601 6.50171 434.899 7.23085 435.178L14.2557 435.868L15.5155 434.679C18.4982 434.88 22.107 435.027 25.0015 435.482C26.7014 435.022 56.0693 402.417 56.9938 399.814Z" fill="#D6DAF0"/>
<path d="M32.3812 436.005C32.6669 435.575 32.9597 435.149 33.2595 434.728C35.4563 431.621 55.854 407.487 57.5603 407.187C58.3685 417.584 59.3136 427.972 60.3942 438.344L60.5351 439.547C52.0726 438.882 40.7837 438.305 32.6856 437.057L32.3812 436.005Z" fill="#FAF9FD"/>
<path d="M32.3812 436.005C40.9747 437.077 51.6793 437.708 60.3942 438.344L60.5351 439.547C52.0726 438.882 40.7837 438.305 32.6856 437.057L32.3812 436.005Z" fill="#C4CDE9"/>
<path d="M0 434.513C1.09622 434.601 6.50171 434.899 7.23085 435.178L14.2557 435.868L15.5155 434.679C18.4982 434.88 22.107 435.027 25.0015 435.482L24.0621 436.328L24.2649 437.321C22.5811 439.768 20.1008 442.439 18.0793 444.694C12.0144 451.466 6.1218 458.477 0 465.189V446.221V434.513Z" fill="#FAF9FD"/>
<path d="M0 434.513C1.09622 434.601 6.50171 434.899 7.23085 435.178C5.84233 435.643 5.63461 435.452 4.85922 436.842C3.13916 439.919 1.7167 443.119 0 446.221V434.513Z" fill="#D6DAF0"/>
<path d="M15.5155 434.679C18.4982 434.88 22.107 435.027 25.0015 435.482L24.0621 436.328C20.5223 436.455 17.7944 436.181 14.2557 435.868L15.5155 434.679Z" fill="#C4CDE9"/>
<path d="M118.695 345.24C121.329 362.306 124.308 386.233 127.658 402.639C131.74 403.185 135.848 403.378 139.958 403.624C139.056 406.568 132.908 430.486 132.314 431.445C130.236 444.694 127.935 455.629 126.808 469.211C125.769 481.736 126.061 491.169 126.108 503.479C107.77 515.96 95.1034 526.518 78.8553 541.367L78.6044 539.845C79.0227 535.662 109.588 508.088 114.902 503.307C114.898 468.453 116.241 430.173 117.159 395.174L117.743 365.02C117.855 359.092 117.818 350.955 118.695 345.24Z" fill="#B1682C"/>
<path d="M127.658 402.639C131.74 403.185 135.848 403.378 139.958 403.624C139.056 406.568 132.908 430.486 132.314 431.445C130.523 423.045 129.012 411.363 127.658 402.639Z" fill="#FAF9FD"/>
<path d="M45.6208 134.757L46.5289 135.212C46.6093 136.643 45.9731 137.849 45.8939 139.292C45.5188 146.134 52.1332 144.814 56.535 144.417C63.2276 143.812 69.8151 141.847 76.449 141.46L76.7924 141.798C76.3717 143.58 73.3637 147.122 72.1769 148.791C62.1622 162.872 62.4821 180.953 72.7214 194.821C75.229 197.137 78.3515 197.673 81.5586 198.548L82.1065 199.6C80.3459 201.464 73.8103 199.186 72.2454 197.706C65.2392 191.076 62.9243 180.78 62.4581 171.502C52.4307 169.065 51.6553 155.87 50.0282 147.257C43.8199 144.957 41.1477 140.467 45.6208 134.757Z" fill="#B1682C"/>
<path d="M71.4054 144.481L71.6285 145.125C65.6256 153.183 64.523 159.129 62.1367 168.465C61.6695 170.295 57.5094 165.662 57.1284 165.195C55.0596 160.777 53.3792 152.377 52.2095 147.321C59.0475 146.368 64.5308 145.778 71.4054 144.481Z" fill="#D59B58"/>
<path d="M24.7892 145.065C29.7777 149.333 32.4434 176.915 39.1925 181.689C45.8103 186.37 54.5953 176.947 57.2986 176.478L58.5064 177.483C51.3887 185.321 37.1987 189.513 33.596 178.112C31.238 170.651 25.0481 152.316 24.7892 145.065Z" fill="#B1682C"/>
<path d="M45.0785 122.123C47.4292 123.751 48.5674 131.048 48.9054 133.926L47.6631 134.034C45.6418 132.336 45.1067 124.825 45.0785 122.123Z" fill="#B1682C"/>
<path d="M365.93 -70H430V427.737C427.375 427.526 418.259 426.582 416.462 427.017L415.919 427.526C416.392 425.325 416.67 415.649 416.708 412.994C417.111 384.981 412.999 357.17 403.044 330.942C390.717 298.463 367.669 267.602 335.286 253.142C334.475 252.597 331.647 251.304 330.625 250.806C333.605 250.381 361.214 252.827 365.929 253.224L365.93 -70Z" fill="#F8AB98"/>
<path d="M135.011 -7.58491C137.632 -8.20088 151.333 -8.28797 154.715 -8.39756C170.644 -8.91177 186.755 -9.00326 202.688 -9.56934L202.628 81.2448L202.557 85.8824C202.643 92.0045 202.675 98.1271 202.652 104.25C167.333 103.586 130.428 101.842 95.2536 101.698C94.8661 98.223 93.1926 93.8828 92.2103 90.4516C88.9772 79.16 84.9179 68.8367 80.4893 58.0035C80.908 52.2073 80.1468 24.3778 80.9912 21.1145L82.0816 20.6922L81.2406 20.3184C80.0969 18.5023 80.6546 -2.82345 80.68 -6.44151C91.1272 -7.14066 107.585 -7.18958 118.537 -7.33147C119.656 -7.34566 119.683 -5.4992 121.327 -4.75211C122.584 -5.6954 123.831 -6.65238 125.067 -7.62356C128.699 -7.85889 131.36 -7.7493 135.011 -7.58491Z" fill="#5FC6EF"/>
<path d="M125.067 -7.62352C128.699 -7.85885 131.36 -7.74926 135.011 -7.58487C136.844 -6.16308 139.04 -3.04358 140.102 -1.05181C144.828 7.8111 153.902 8.23186 162.698 7.0596C171.315 6.14518 174.03 5.69016 181.972 8.75243L148.5 12.7061C147.55 15.1632 146.57 17.564 143.9 18.611C134.489 22.301 122.98 16.0013 113.709 16.3232C103.264 16.6857 92.7895 22.2716 82.0816 20.6923L81.2406 20.3185C80.0969 18.5024 80.6546 -2.82341 80.68 -6.44147C91.1272 -7.14062 107.585 -7.18954 118.537 -7.33143C119.656 -7.34562 119.683 -5.49916 121.327 -4.75207C122.584 -5.69536 123.831 -6.65234 125.067 -7.62352Z" fill="#FAF9FD"/>
<path d="M169.535 77.1438C178.265 65.9378 179.121 72.104 186.172 76.1115C186.524 76.3116 193.428 74.4544 195.703 75.8771C199.026 77.956 199.376 80.481 202.628 81.2448L202.557 85.8824C201.806 86.5234 200.747 87.4207 199.803 87.7279C195.12 89.252 172.51 85.859 169.843 87.9104C170.272 88.953 170.503 89.2901 170.432 90.4379C167.529 93.2414 148.701 93.4131 144.021 92.4625C141.465 91.9434 141.517 88.658 139.033 88.3645C131.661 87.4921 125.853 86.9299 118.725 84.6074C125.249 83.9083 133.503 83.3334 139.997 83.0208C144.953 74.3208 145.821 78.798 151.467 79.118C152.792 78.1884 151.267 74.7851 153.509 72.9171C154.839 71.3128 158.609 73.9827 159.694 73.584C164.81 71.7008 165.8 72.5751 169.535 77.1438Z" fill="#9BD9EF"/>
<path d="M97.338 110.863C131.32 112.501 168.613 113.328 202.715 113.995L202.683 227.923C198.434 227.576 163.309 225.119 162.528 224.749L100.716 219.954C99.6035 214.685 98.3824 203.817 98.2024 198.441C98.4328 194.565 100.772 190.208 101.183 186.495C103.58 164.82 109.567 146.215 105.185 124.443C101.909 116.578 98.5972 117.284 97.338 110.863Z" fill="#5FC6EF"/>
<path d="M105.185 124.443C113.492 132.696 114.029 141.537 110.826 152.419C120.46 153.817 124.856 163.372 123.27 172.214C127.765 178.356 128.802 181.007 129.646 188.654C137.799 195.635 131.145 197.694 131.635 201.669C136.887 203.476 138.799 205.538 143.325 207.981C145.176 208.98 152.179 206.283 154.57 206.746C161.201 207.146 163.865 211.74 164.402 217.838C164.56 219.628 165.046 222.898 164.079 224.461L162.528 224.749L100.716 219.954C99.6035 214.685 98.3824 203.817 98.2024 198.441C98.4328 194.565 100.772 190.208 101.183 186.495C103.58 164.82 109.567 146.215 105.185 124.443Z" fill="#156E91"/>
<path d="M215.294 114.406C241.582 114.87 268.695 115.833 294.997 116.703C314.235 117.261 334.383 118.163 353.551 118.382L353.543 239.769C308.077 236.187 260.609 233.18 215.358 228.849C215.35 218.872 215.668 206.873 215.295 197.067C215.736 190.088 215.329 177.431 215.329 170.099L215.294 114.406Z" fill="#156E91"/>
<path d="M215.294 114.406C241.582 114.87 268.695 115.833 294.997 116.703L296.214 123.06C288.082 120.845 279.773 118.522 271.875 122.997C267.804 125.276 264.831 129.108 263.634 133.617C261.858 140.228 263.716 146.223 268.843 150.667C258.377 157.956 257.439 167.692 258.636 179.528C240.561 170.415 231.19 187.634 231.195 203.337C230.377 201.893 229.61 200.921 228.68 199.569C226.69 196.677 217.399 193.464 215.295 197.067C215.736 190.088 215.329 177.431 215.329 170.099L215.294 114.406Z" fill="#5FC6EF"/>
<path d="M343.679 -12.6981C346.76 -12.9105 350.513 -13.2666 353.546 -13.3082C353.471 26.6778 352.87 68.163 353.505 108.025L293.631 106.557C267.649 106.205 241.341 105.183 215.312 104.651L215.286 -9.86434L299.218 -11.9774C312.563 -12.3004 330.734 -13.2945 343.679 -12.6981Z" fill="#5FC6EF"/>
<path d="M343.679 -12.6981C346.761 -12.9105 350.513 -13.2666 353.546 -13.3082C353.471 26.6778 352.87 68.163 353.505 108.025L293.631 106.557C287.782 97.6819 286.605 86.2083 294.984 78.4575C277.316 58.4458 291.774 50.8941 309.782 42.6306C306.286 38.6676 304.679 33.7398 307.719 28.5199C309.634 25.2306 312.914 26.968 315.292 26.5956C312.911 16.7435 314.235 3.59269 327.62 10.5724C318.21 -5.9268 330.292 -9.37117 343.679 -12.6981Z" fill="#156E91"/>
<path d="M0 492.989C22.6736 494.207 46.5495 496.658 69.3141 498.483L69.7177 501.003C70.9055 506.796 76.7303 535.745 78.6044 539.845L78.8554 541.367C68.6259 551.494 61.9117 558.858 53.14 570.204C50.5531 573.995 47.922 577.772 45.5249 581.687L50.764 589.515C49.5625 590.165 6.0993 586.32 0 585.826V495.01V492.989Z" fill="#FAF9FD"/>
<path d="M0 492.989C22.6736 494.207 46.5495 496.658 69.3141 498.483L69.7177 501.003C66.4362 500.23 51.5804 499.242 47.8437 498.929L0 495.01V492.989Z" fill="#D6DAF0"/>
<path d="M10.2566 798.364L13.125 798.291C12.2592 800.629 10.4671 805.047 9.8559 807.283L0 807.455V798.878C3.41746 798.677 6.83641 798.506 10.2566 798.364Z" fill="#4D30BE"/>
</g>
<defs>
<clipPath id="clip0_63_5221">
<rect width="430" height="1002" fill="white" transform="translate(0 -70)"/>
</clipPath>
</defs>
</svg>
